{
.appVersion = "939";
DisplayStrings = (
a,
Aa,
/macroncomb,
o,
/idotless,
i,
r,
"/minus \U00F7=",
j,
e,
"&",
A,
GOeofounbdations,
s,
2
);
copyright = "Copyright (C) 2018 by Dale Sattler. All rights reserved.";
date = "2018-04-06 12:00:00 +0000";
designer = "Dale Sattler";
designerURL = "http://noponies.com";
disablesNiceNames = 1;
familyName = "Kulim Park";
fontMaster = (
{
alignmentZones = (
"{840, 16}",
"{700, 4}",
"{500, 8}",
"{0, -11}",
"{-205, -16}"
);
ascender = 840;
capHeight = 700;
customParameters = (
{
name = typoAscender;
value = 840;
},
{
name = typoDescender;
value = -205;
},
{
name = typoLineGap;
value = 155;
},
{
name = winAscent;
value = 995;
},
{
name = winDescent;
value = 205;
},
{
name = hheaAscender;
value = 840;
},
{
name = hheaDescender;
value = -205;
}
);
descender = -205;
guideLines = (
{
angle = 180;
position = "{446, 0}";
}
);
horizontalStems = (
42
);
id = "3C8330F3-4770-4812-9C95-859F387513C1";
userData = {
GSOffsetHorizontal = -4;
GSOffsetVertical = -4;
};
verticalStems = (
52
);
weight = Light;
weightValue = 200;
widthValue = 5;
xHeight = 500;
}
);
glyphs = (
{
glyphname = A;
lastChange = "2018-04-12 21:52:32 +0000";
layers = (
{
anchors = (
{
name = bottom;
position = "{320, 0}";
},
{
name = ogonek;
position = "{576, 10}";
},
{
name = top;
position = "{320, 700}";
}
);
layerId = "3C8330F3-4770-4812-9C95-859F387513C1";
paths = (
{
closed = 1;
nodes = (
"150 183 LINE",
"498 183 LINE",
"498 226 LINE",
"150 226 LINE"
);
},
{
closed = 1;
nodes = (
"299 700 LINE",
"545 0 LINE",
"600 0 LINE",
"354 700 LINE"
);
},
{
closed = 1;
nodes = (
"286 700 LINE",
"40 0 LINE",
"95 0 LINE",
"341 700 LINE"
);
}
);
width = 640;
}
);
leftKerningGroup = "upper-A";
note = A;
unicode = 0041;
},
{
glyphname = AE;
lastChange = "2018-04-12 21:52:32 +0000";
layers = (
{
layerId = "3C8330F3-4770-4812-9C95-859F387513C1";
paths = (
{
closed = 1;
nodes = (
"762 46 LINE",
"555 46 LINE",
"465 320 LINE",
"700 320 LINE",
"700 366 LINE",
"465 366 LINE",
"354 654 LINE",
"762 654 LINE",
"762 700 LINE",
"322 700 LINE",
"559 0 LINE",
"762 0 LINE"
);
},
{
closed = 1;
nodes = (
"150 183 LINE",
"498 183 LINE",
"498 226 LINE",
"150 226 LINE"
);
},
{
closed = 1;
nodes = (
"299 700 LINE",
"545 0 LINE",
"600 0 LINE",
"354 700 LINE"
);
},
{
closed = 1;
nodes = (
"286 700 LINE",
"40 0 LINE",
"95 0 LINE",
"341 700 LINE"
);
}
);
width = 812;
}
);
leftKerningGroup = "upper-A";
note = AE;
unicode = 00C6;
},
{
glyphname = B;
lastChange = "2018-04-10 08:03:39 +0000";
layers = (
{
layerId = "3C8330F3-4770-4812-9C95-859F387513C1";
paths = (
{
closed = 1;
nodes = (
"530 100 OFFCURVE",
"530 196 CURVE SMOOTH",
"530 263 OFFCURVE",
"498 319 OFFCURVE",
"422 366 CURVE",
"446 393 LINE SMOOTH",
"477 428 OFFCURVE",
"492 478 OFFCURVE",
"492 521 CURVE SMOOTH",
"492 623 OFFCURVE",
"419 700 OFFCURVE",
"321 700 CURVE SMOOTH",
"50 700 LINE",
"50 0 LINE",
"355 0 LINE SMOOTH",
"447 0 OFFCURVE"
);
},
{
closed = 1;
nodes = (
"439 592 OFFCURVE",
"439 521 CURVE SMOOTH",
"439 447 OFFCURVE",
"383 373 OFFCURVE",
"317 373 CURVE SMOOTH",
"103 373 LINE",
"103 650 LINE",
"321 650 LINE SMOOTH",
"394 650 OFFCURVE"
);
},
{
closed = 1;
nodes = (
"477 265 OFFCURVE",
"477 196 CURVE SMOOTH",
"477 129 OFFCURVE",
"425 50 OFFCURVE",
"355 50 CURVE SMOOTH",
"103 50 LINE",
"103 327 LINE",
"358 327 LINE SMOOTH",
"430 327 OFFCURVE"
);
}
);
width = 570;
}
);
note = B;
unicode = 0042;
},
{
glyphname = C;
lastChange = "2018-04-12 21:52:32 +0000";
layers = (
{
anchors = (
{
name = bottom;
position = "{388, 0}";
},
{
name = top;
position = "{388, 700}";
}
);
layerId = "3C8330F3-4770-4812-9C95-859F387513C1";
paths = (
{
closed = 1;
nodes = (
"484 -5 OFFCURVE",
"570 32 OFFCURVE",
"637 103 CURVE",
"596 136 LINE",
"540 80 OFFCURVE",
"468 44 OFFCURVE",
"388 44 CURVE SMOOTH",
"305 44 OFFCURVE",
"234 79 OFFCURVE",
"179 135 CURVE SMOOTH",
"126 191 OFFCURVE",
"93 266 OFFCURVE",
"93 350 CURVE SMOOTH",
"93 433 OFFCURVE",
"126 509 OFFCURVE",
"179 565 CURVE SMOOTH",
"234 621 OFFCURVE",
"305 656 OFFCURVE",
"388 656 CURVE SMOOTH",
"468 656 OFFCURVE",
"540 620 OFFCURVE",
"596 564 CURVE",
"637 597 LINE",
"570 668 OFFCURVE",
"484 705 OFFCURVE",
"388 705 CURVE SMOOTH",
"291 705 OFFCURVE",
"205 665 OFFCURVE",
"141 601 CURVE SMOOTH",
"77 537 OFFCURVE",
"40 447 OFFCURVE",
"40 350 CURVE SMOOTH",
"40 250 OFFCURVE",
"77 163 OFFCURVE",
"141 99 CURVE SMOOTH",
"205 35 OFFCURVE",
"291 -5 OFFCURVE",
"388 -5 CURVE SMOOTH"
);
}
);
width = 677;
}
);
leftKerningGroup = "upper-rounds";
note = C;
unicode = 0043;
},
{
glyphname = D;
lastChange = "2018-04-10 23:22:31 +0000";
layers = (
{
anchors = (
{
name = bottom;
position = "{319, 0}";
},
{
name = center;
position = "{204, 350}";
},
{
name = top;
position = "{319, 700}";
}
);
layerId = "3C8330F3-4770-4812-9C95-859F387513C1";
paths = (
{
closed = 1;
nodes = (
"597 156 OFFCURVE",
"597 352 CURVE SMOOTH",
"597 546 OFFCURVE",
"441 703 OFFCURVE",
"250 703 CURVE SMOOTH",
"50 703 LINE",
"50 0 LINE",
"250 0 LINE SMOOTH",
"440 0 OFFCURVE"
);
},
{
closed = 1;
nodes = (
"544 518 OFFCURVE",
"544 352 CURVE SMOOTH",
"544 189 OFFCURVE",
"418 48 OFFCURVE",
"250 48 CURVE SMOOTH",
"103 48 LINE",
"103 656 LINE",
"250 656 LINE SMOOTH",
"418 656 OFFCURVE"
);
}
);
width = 637;
}
);
note = D;
unicode = 0044;
},
{
glyphname = E;
lastChange = "2018-04-10 23:22:38 +0000";
layers = (
{
anchors = (
{
name = bottom;
position = "{234, 0}";
},
{
name = ogonek;
position = "{420, 10}";
},
{
name = top;
position = "{234, 700}";
},
{
name = topleft;
position = "{20, 700}";
}
);
layerId = "3C8330F3-4770-4812-9C95-859F387513C1";
paths = (
{
closed = 1;
nodes = (
"427 46 LINE",
"100 46 LINE",
"100 320 LINE",
"365 320 LINE",
"365 366 LINE",
"100 366 LINE",
"100 654 LINE",
"427 654 LINE",
"427 700 LINE",
"50 700 LINE",
"50 0 LINE",
"427 0 LINE"
);
}
);
width = 467;
}
);
note = E;
unicode = 0045;
},
{
glyphname = F;
lastChange = "2018-04-10 08:07:49 +0000";
layers = (
{
layerId = "3C8330F3-4770-4812-9C95-859F387513C1";
paths = (
{
closed = 1;
nodes = (
"424 700 LINE",
"50 700 LINE",
"50 0 LINE",
"102 0 LINE",
"102 321 LINE",
"362 321 LINE",
"362 367 LINE",
"102 367 LINE",
"102 654 LINE",
"424 654 LINE"
);
}
);
width = 464;
}
);
note = F;
unicode = 0046;
},
{
glyphname = G;
lastChange = "2018-04-18 21:47:06 +0000";
layers = (
{
anchors = (
{
name = bottom;
position = "{386, 0}";
},
{
name = top;
position = "{386, 700}";
}
);
layerId = "3C8330F3-4770-4812-9C95-859F387513C1";
paths = (
{
closed = 1;
nodes = (
"530 -8 OFFCURVE",
"621 41 OFFCURVE",
"677 148 CURVE",
"677 313 LINE",
"493 313 LINE",
"493 271 LINE",
"623 271 LINE",
"623 160 LINE",
"567 72 OFFCURVE",
"495 43 OFFCURVE",
"386 43 CURVE SMOOTH",
"303 43 OFFCURVE",
"232 77 OFFCURVE",
"179 133 CURVE SMOOTH",
"126 189 OFFCURVE",
"94 263 OFFCURVE",
"94 347 CURVE SMOOTH",
"94 430 OFFCURVE",
"127 508 OFFCURVE",
"179 563 CURVE SMOOTH",
"232 618 OFFCURVE",
"303 651 OFFCURVE",
"386 651 CURVE SMOOTH",
"478 651 OFFCURVE",
"559 611 OFFCURVE",
"615 539 CURVE",
"660 568 LINE",
"595 655 OFFCURVE",
"495 705 OFFCURVE",
"386 705 CURVE SMOOTH",
"290 705 OFFCURVE",
"206 665 OFFCURVE",
"142 601 CURVE SMOOTH",
"78 537 OFFCURVE",
"40 444 OFFCURVE",
"40 347 CURVE SMOOTH",
"40 247 OFFCURVE",
"78 160 OFFCURVE",
"142 96 CURVE SMOOTH",
"206 32 OFFCURVE",
"290 -8 OFFCURVE",
"386 -8 CURVE SMOOTH"
);
}
);
width = 717;
}
);
leftKerningGroup = "upper-rounds";
unicode = 0047;
},
{
glyphname = H;
lastChange = "2018-04-10 23:47:08 +0000";
layers = (
{
anchors = (
{
name = bottom;
position = "{303, 0}";
},
{
name = center;
position = "{303, 586}";
},
{
name = top;
position = "{303, 700}";
},
{
name = topleft;
position = "{20, 700}";
}
);
layerId = "3C8330F3-4770-4812-9C95-859F387513C1";
paths = (
{
closed = 1;
nodes = (
"556 700 LINE",
"504 700 LINE",
"504 359 LINE",
"104 359 LINE",
"104 700 LINE",
"50 700 LINE",
"50 0 LINE",
"104 0 LINE",
"104 319 LINE",
"504 319 LINE",
"504 0 LINE",
"556 0 LINE"
);
}
);
width = 606;
}
);
unicode = 0048;
},
{
glyphname = I;
lastChange = "2018-04-11 00:12:08 +0000";
layers = (
{
anchors = (
{
name = bottom;
position = "{76, 0}";
},
{
name = ogonek;
position = "{112, 10}";
},
{
name = top;
position = "{76, 700}";
},
{
name = topleft;
position = "{20, 700}";
}
);
layerId = "3C8330F3-4770-4812-9C95-859F387513C1";
paths = (
{
closed = 1;
nodes = (
"102 700 LINE",
"50 700 LINE",
"50 0 LINE",
"102 0 LINE"
);
}
);
width = 152;
}
);
note = I;
unicode = 0049;
},
{
glyphname = Imacron;
lastChange = "2018-04-12 21:52:32 +0000";
layers = (
{
anchors = (
{
name = _top;
position = "{155, 700}";
},
{
name = top;
position = "{155, 840}";
}
);
components = (
{
name = I;
transform = "{1, 0, 0, 1, 79, 0}";
}
);
layerId = "3C8330F3-4770-4812-9C95-859F387513C1";
paths = (
{
closed = 1;
nodes = (
"260 840 LINE",
"50 840 LINE",
"50 795 LINE",
"260 795 LINE"
);
}
);
width = 310;
}
);
unicode = 012A;
},
{
glyphname = J;
lastChange = "2018-04-10 08:10:04 +0000";
layers = (
{
layerId = "3C8330F3-4770-4812-9C95-859F387513C1";
paths = (
{
closed = 1;
nodes = (
"321 91 OFFCURVE",
"336 157 OFFCURVE",
"336 264 CURVE SMOOTH",
"336 700 LINE",
"284 700 LINE",
"284 264 LINE SMOOTH",
"284 164 OFFCURVE",
"274 111 OFFCURVE",
"247 79 CURVE SMOOTH",
"218 44 OFFCURVE",
"176 42 OFFCURVE",
"139 41 CURVE SMOOTH",
"114 41 OFFCURVE",
"80 49 OFFCURVE",
"45 57 CURVE",
"30 11 LINE",
"97 -10 OFFCURVE",
"230 -28 OFFCURVE",
"289 50 CURVE SMOOTH"
);
}
);
width = 386;
}
);
note = J;
unicode = 004A;
},
{
glyphname = K;
lastChange = "2018-04-12 21:52:32 +0000";
layers = (
{
anchors = (
{
name = bottom;
position = "{287, 0}";
},
{
name = top;
position = "{287, 700}";
}
);
layerId = "3C8330F3-4770-4812-9C95-859F387513C1";
paths = (
{
closed = 1;
nodes = (
"269 452 LINE",
"488 702 LINE",
"418 702 LINE",
"102 342 LINE",
"102 701 LINE",
"50 701 LINE",
"50 0 LINE",
"102 0 LINE",
"102 261 LINE",
"232 410 LINE",
"472 0 LINE",
"533 0 LINE"
);
}
);
width = 556;
}
);
note = K;
unicode = 004B;
},
{
glyphname = L;
lastChange = "2018-04-12 21:52:32 +0000";
layers = (
{
anchors = (
{
name = bottom;
position = "{210, 0}";
},
{
name = center;
position = "{84, 350}";
},
{
name = top;
position = "{210, 700}";
},
{
name = topright;
position = "{397, 700}";
}
);
layerId = "3C8330F3-4770-4812-9C95-859F387513C1";
paths = (
{
closed = 1;
nodes = (
"377 48 LINE",
"105 48 LINE",
"105 700 LINE",
"53 700 LINE",
"53 0 LINE",
"377 0 LINE"
);
}
);
width = 417;
}
);
note = L;
unicode = 004C;
},
{
glyphname = M;
lastChange = "2018-04-10 08:12:22 +0000";
layers = (
{
layerId = "3C8330F3-4770-4812-9C95-859F387513C1";
paths = (
{
closed = 1;
nodes = (
"774 700 LINE",
"629 700 LINE",
"412 167 LINE",
"195 700 LINE",
"50 700 LINE",
"50 0 LINE",
"102 0 LINE",
"102 648 LINE",
"160 648 LINE",
"378 115 LINE",
"447 115 LINE",
"664 648 LINE",
"722 648 LINE",
"722 0 LINE",
"774 0 LINE"
);
}
);
width = 824;
}
);
note = M;
unicode = 004D;
},
{
glyphname = N;
lastChange = "2018-04-10 23:23:05 +0000";
layers = (
{
anchors = (
{
name = bottom;
position = "{313, 0}";
},
{
name = top;
position = "{313, 700}";
}
);
layerId = "3C8330F3-4770-4812-9C95-859F387513C1";
paths = (
{
closed = 1;
nodes = (
"576 702 LINE",
"524 702 LINE",
"524 54 LINE",
"133 702 LINE",
"50 702 LINE",
"50 1 LINE",
"102 1 LINE",
"102 652 LINE",
"494 0 LINE",
"576 0 LINE"
);
}
);
width = 626;
}
);
note = N;
unicode = 004E;
},
{
glyphname = Eng;
lastChange = "2018-04-11 00:10:48 +0000";
layers = (
{
components = (
{
name = N;
}
);
layerId = "3C8330F3-4770-4812-9C95-859F387513C1";
paths = (
{
closed = 1;
nodes = (
"430 -147 LINE",
"534 -148 OFFCURVE",
"580 -131 OFFCURVE",
"576 -3 CURVE SMOOTH",
"576 0 OFFCURVE",
"576 19 OFFCURVE",
"576 23 CURVE",
"523 23 LINE",
"523 19 OFFCURVE",
"523 0 OFFCURVE",
"523 -3 CURVE SMOOTH",
"523 -97 OFFCURVE",
"513 -99 OFFCURVE",
"430 -99 CURVE"
);
}
);
width = 626;
}
);
unicode = 014A;
},
{
glyphname = O;
lastChange = "2018-04-18 21:48:01 +0000";
layers = (
{
anchors = (
{
name = bottom;
position = "{383, 0}";
},
{
name = center;
position = "{383, 350}";
},
{
name = ogonek;
position = "{688, 10}";
},
{
name = top;
position = "{383, 700}";
},
{
name = topleft;
position = "{20, 700}";
},
{
name = topright;
position = "{745, 700}";
}
);
layerId = "3C8330F3-4770-4812-9C95-859F387513C1";
paths = (
{
closed = 1;
nodes = (
"688 157 OFFCURVE",
"725 247 OFFCURVE",
"725 344 CURVE SMOOTH",
"725 441 OFFCURVE",
"688 531 OFFCURVE",
"625 598 CURVE SMOOTH",
"562 665 OFFCURVE",
"476 704 OFFCURVE",
"383 704 CURVE SMOOTH",
"287 704 OFFCURVE",
"205 662 OFFCURVE",
"141 597 CURVE SMOOTH",
"77 532 OFFCURVE",
"40 441 OFFCURVE",
"40 344 CURVE SMOOTH",
"40 247 OFFCURVE",
"78 157 OFFCURVE",
"141 93 CURVE SMOOTH",
"204 29 OFFCURVE",
"287 -10 OFFCURVE",
"383 -10 CURVE SMOOTH",
"479 -10 OFFCURVE",
"562 29 OFFCURVE",
"625 93 CURVE SMOOTH"
);
},
{
closed = 1;
nodes = (
"641 506 OFFCURVE",
"672 428 OFFCURVE",
"672 344 CURVE SMOOTH",
"672 259 OFFCURVE",
"640 182 OFFCURVE",
"588 126 CURVE SMOOTH",
"536 69 OFFCURVE",
"463 35 OFFCURVE",
"383 35 CURVE SMOOTH",
"302 35 OFFCURVE",
"229 70 OFFCURVE",
"178 126 CURVE SMOOTH",
"126 182 OFFCURVE",
"93 259 OFFCURVE",
"93 344 CURVE SMOOTH",
"93 428 OFFCURVE",
"124 506 OFFCURVE",
"177 565 CURVE SMOOTH",
"229 622 OFFCURVE",
"302 659 OFFCURVE",
"383 659 CURVE SMOOTH",
"466 659 OFFCURVE",
"536 622 OFFCURVE",
"588 565 CURVE SMOOTH"
);
}
);
width = 765;
}
);
leftKerningGroup = "upper-rounds";
note = O;
unicode = 004F;
},
{
glyphname = OE;
lastChange = "2018-04-12 21:52:32 +0000";
layers = (
{
layerId = "3C8330F3-4770-4812-9C95-859F387513C1";
paths = (
{
closed = 1;
nodes = (
"1009 48 LINE",
"710 48 LINE",
"710 320 LINE",
"952 320 LINE",
"952 358 LINE",
"710 358 LINE",
"710 654 LINE",
"1009 654 LINE",
"1009 700 LINE",
"661 700 LINE",
"661 542 LINE",
"558 659 OFFCURVE",
"471 703 OFFCURVE",
"376 703 CURVE SMOOTH",
"284 703 OFFCURVE",
"200 661 OFFCURVE",
"139 596 CURVE SMOOTH",
"79 531 OFFCURVE",
"40 440 OFFCURVE",
"40 343 CURVE SMOOTH",
"40 246 OFFCURVE",
"79 157 OFFCURVE",
"139 93 CURVE SMOOTH",
"200 29 OFFCURVE",
"284 -10 OFFCURVE",
"376 -10 CURVE SMOOTH",
"424 -10 OFFCURVE",
"469 1 OFFCURVE",
"516 26 CURVE SMOOTH",
"563 50 OFFCURVE",
"610 89 OFFCURVE",
"661 146 CURVE",
"661 0 LINE",
"1009 0 LINE"
);
},
{
closed = 1;
nodes = (
"630 507 OFFCURVE",
"661 427 OFFCURVE",
"661 343 CURVE SMOOTH",
"661 258 OFFCURVE",
"629 182 OFFCURVE",
"578 126 CURVE SMOOTH",
"527 70 OFFCURVE",
"456 35 OFFCURVE",
"376 35 CURVE SMOOTH",
"296 35 OFFCURVE",
"226 70 OFFCURVE",
"174 126 CURVE SMOOTH",
"123 182 OFFCURVE",
"91 258 OFFCURVE",
"91 343 CURVE SMOOTH",
"91 427 OFFCURVE",
"123 505 OFFCURVE",
"174 564 CURVE SMOOTH",
"225 621 OFFCURVE",
"296 658 OFFCURVE",
"376 658 CURVE SMOOTH",
"456 658 OFFCURVE",
"527 623 OFFCURVE",
"579 564 CURVE SMOOTH"
);
}
);
width = 1049;
}
);
leftKerningGroup = "upper-rounds";
note = OE;
unicode = 0152;
},
{
glyphname = P;
lastChange = "2018-04-10 08:14:18 +0000";
layers = (
{
layerId = "3C8330F3-4770-4812-9C95-859F387513C1";
paths = (
{
closed = 1;
nodes = (
"495 410 OFFCURVE",
"495 504 CURVE SMOOTH",
"495 607 OFFCURVE",
"420 700 OFFCURVE",
"322 700 CURVE SMOOTH",
"51 700 LINE",
"50 0 LINE",
"102 0 LINE",
"102 309 LINE",
"319 309 LINE SMOOTH",
"414 309 OFFCURVE"
);
},
{
closed = 1;
nodes = (
"444 580 OFFCURVE",
"444 504 CURVE SMOOTH",
"444 435 OFFCURVE",
"386 360 OFFCURVE",
"319 360 CURVE SMOOTH",
"102 360 LINE",
"102 648 LINE",
"322 648 LINE SMOOTH",
"395 648 OFFCURVE"
);
}
);
width = 535;
}
);
note = P;
unicode = 0050;
},
{
glyphname = Thorn;
lastChange = "2018-04-10 08:14:47 +0000";
layers = (
{
layerId = "3C8330F3-4770-4812-9C95-859F387513C1";
paths = (
{
closed = 1;
nodes = (
"496 257 OFFCURVE",
"496 351 CURVE SMOOTH",
"496 454 OFFCURVE",
"420 547 OFFCURVE",
"323 547 CURVE SMOOTH",
"103 547 LINE",
"103 700 LINE",
"51 700 LINE",
"50 0 LINE",
"103 0 LINE",
"103 154 LINE",
"320 154 LINE SMOOTH",
"414 154 OFFCURVE"
);
},
{
closed = 1;
nodes = (
"445 427 OFFCURVE",
"445 351 CURVE SMOOTH",
"445 281 OFFCURVE",
"387 207 OFFCURVE",
"320 207 CURVE SMOOTH",
"103 207 LINE",
"103 494 LINE",
"323 494 LINE SMOOTH",
"397 494 OFFCURVE"
);
}
);
width = 536;
}
);
note = Thorn;
unicode = 00DE;
},
{
glyphname = Q;
lastChange = "2018-04-12 21:52:32 +0000";
layers = (
{
components = (
{
name = O;
}
);
layerId = "3C8330F3-4770-4812-9C95-859F387513C1";
paths = (
{
closed = 1;
nodes = (
"446 214 OFFCURVE",
"479 198 OFFCURVE",
"497 178 CURVE SMOOTH",
"514 159 OFFCURVE",
"534 107 OFFCURVE",
"546 84 CURVE SMOOTH",
"583 15 OFFCURVE",
"618 -3 OFFCURVE",
"693 -3 CURVE",
"705 -3 LINE",
"705 45 LINE",
"630 43 OFFCURVE",
"616 61 OFFCURVE",
"592 108 CURVE",
"579 129 OFFCURVE",
"564 178 OFFCURVE",
"534 213 CURVE",
"507 241 OFFCURVE",
"467 264 OFFCURVE",
"413 277 CURVE",
"413 224 LINE"
);
}
);
width = 765;
}
);
leftKerningGroup = "upper-rounds";
note = Q;
unicode = 0051;
},
{
glyphname = R;
lastChange = "2018-04-10 08:31:53 +0000";
layers = (
{
anchors = (
{
name = bottom;
position = "{272, 0}";
},
{
name = top;
position = "{272, 700}";
}
);
layerId = "3C8330F3-4770-4812-9C95-859F387513C1";
paths = (
{
closed = 1;
nodes = (
"310 309 LINE",
"412 308 OFFCURVE",
"492 407 OFFCURVE",
"492 504 CURVE SMOOTH",
"492 609 OFFCURVE",
"412 700 OFFCURVE",
"321 700 CURVE SMOOTH",
"51 700 LINE",
"50 0 LINE",
"102 0 LINE",
"102 309 LINE",
"248 309 LINE",
"441 0 LINE",
"503 0 LINE"
);
},
{
closed = 1;
nodes = (
"440 578 OFFCURVE",
"440 504 CURVE SMOOTH",
"440 441 OFFCURVE",
"384 360 OFFCURVE",
"318 360 CURVE SMOOTH",
"102 360 LINE",
"102 648 LINE",
"321 648 LINE SMOOTH",
"391 648 OFFCURVE"
);
}
);
width = 543;
}
);
note = R;
unicode = 0052;
},
{
glyphname = S;
lastChange = "2018-04-10 23:23:16 +0000";
layers = (
{
anchors = (
{
name = bottom;
position = "{275, 0}";
},
{
name = top;
position = "{275, 700}";
}
);
layerId = "3C8330F3-4770-4812-9C95-859F387513C1";
paths = (
{
closed = 1;
nodes = (
"453 669 LINE",
"399 693 OFFCURVE",
"327 704 OFFCURVE",
"267 704 CURVE SMOOTH",
"127 704 OFFCURVE",
"47 643 OFFCURVE",
"40 540 CURVE SMOOTH",
"39 520 OFFCURVE",
"42 500 OFFCURVE",
"49 481 CURVE SMOOTH",
"63 442 OFFCURVE",
"90 411 OFFCURVE",
"130 386 CURVE SMOOTH",
"170 361 OFFCURVE",
"213 350 OFFCURVE",
"242 343 CURVE",
"308 327 OFFCURVE",
"360 321 OFFCURVE",
"411 279 CURVE SMOOTH",
"439 256 OFFCURVE",
"455 227 OFFCURVE",
"455 194 CURVE SMOOTH",
"455 153 OFFCURVE",
"437 113 OFFCURVE",
"402 85 CURVE SMOOTH",
"367 58 OFFCURVE",
"322 44 OFFCURVE",
"275 44 CURVE SMOOTH",
"239 44 OFFCURVE",
"202 53 OFFCURVE",
"166 68 CURVE",
"135 79 OFFCURVE",
"112 94 OFFCURVE",
"93 107 CURVE",
"51 70 LINE",
"78 49 OFFCURVE",
"112 31 OFFCURVE",
"151 16 CURVE SMOOTH",
"194 1 OFFCURVE",
"238 -8 OFFCURVE",
"277 -8 CURVE SMOOTH",
"344 -8 OFFCURVE",
"401 13 OFFCURVE",
"446 56 CURVE SMOOTH",
"486 93 OFFCURVE",
"509 143 OFFCURVE",
"509 194 CURVE SMOOTH",
"509 278 OFFCURVE",
"448 346 OFFCURVE",
"343 374 CURVE",
"336 376 OFFCURVE",
"278 390 OFFCURVE",
"263 394 CURVE SMOOTH",
"222 403 OFFCURVE",
"181 417 OFFCURVE",
"150 439 CURVE SMOOTH",
"118 461 OFFCURVE",
"97 491 OFFCURVE",
"97 535 CURVE SMOOTH",
"97 620 OFFCURVE",
"179 652 OFFCURVE",
"266 652 CURVE SMOOTH",
"289 652 OFFCURVE",
"317 650 OFFCURVE",
"345 644 CURVE SMOOTH",
"372 638 OFFCURVE",
"398 630 OFFCURVE",
"421 621 CURVE"
);
}
);
width = 549;
}
);
note = S;
unicode = 0053;
},
{
glyphname = T;
lastChange = "2018-04-10 23:23:25 +0000";
layers = (
{
anchors = (
{
name = bottom;
position = "{298, 0}";
},
{
name = center;
position = "{298, 350}";
},
{
name = top;
position = "{298, 700}";
}
);
layerId = "3C8330F3-4770-4812-9C95-859F387513C1";
paths = (
{
closed = 1;
nodes = (
"556 700 LINE",
"40 700 LINE",
"40 652 LINE",
"272 652 LINE",
"272 0 LINE",
"324 0 LINE",
"324 652 LINE",
"556 652 LINE"
);
}
);
width = 596;
}
);
note = T;
unicode = 0054;
},
{
glyphname = U;
lastChange = "2018-04-12 21:52:32 +0000";
layers = (
{
anchors = (
{
name = bottom;
position = "{300, 0}";
},
{
name = ogonek;
position = "{540, 10}";
},
{
name = top;
position = "{300, 700}";
},
{
name = topright;
position = "{580, 700}";
}
);
layerId = "3C8330F3-4770-4812-9C95-859F387513C1";
paths = (
{
closed = 1;
nodes = (
"537 104 OFFCURVE",
"565 163 OFFCURVE",
"565 231 CURVE SMOOTH",
"565 700 LINE",
"512 700 LINE",
"512 233 LINE SMOOTH",
"512 180 OFFCURVE",
"490 131 OFFCURVE",
"454 96 CURVE SMOOTH",
"417 60 OFFCURVE",
"366 38 OFFCURVE",
"307 38 CURVE SMOOTH",
"248 38 OFFCURVE",
"198 61 OFFCURVE",
"162 96 CURVE SMOOTH",
"127 131 OFFCURVE",
"103 178 OFFCURVE",
"103 233 CURVE",
"102 700 LINE",
"50 700 LINE",
"50 233 LINE SMOOTH",
"50 165 OFFCURVE",
"78 104 OFFCURVE",
"125 60 CURVE SMOOTH",
"172 16 OFFCURVE",
"235 -12 OFFCURVE",
"307 -12 CURVE SMOOTH",
"379 -12 OFFCURVE",
"443 16 OFFCURVE",
"490 60 CURVE SMOOTH"
);
}
);
width = 615;
}
);
unicode = 0055;
},
{
glyphname = V;
lastChange = "2018-04-12 21:52:32 +0000";
layers = (
{
layerId = "3C8330F3-4770-4812-9C95-859F387513C1";
paths = (
{
closed = 1;
nodes = (
"496 700 LINE",
"294 53 LINE",
"92 700 LINE",
"40 700 LINE",
"261 0 LINE",
"327 0 LINE",
"548 700 LINE"
);
}
);
width = 588;
}
);
leftKerningGroup = "upper-angled";
note = V;
unicode = 0056;
},
{
glyphname = W;
lastChange = "2018-04-12 21:52:32 +0000";
layers = (
{
anchors = (
{
name = bottom;
position = "{534, 0}";
},
{
name = top;
position = "{534, 700}";
}
);
layerId = "3C8330F3-4770-4812-9C95-859F387513C1";
paths = (
{
closed = 1;
nodes = (
"977 702 LINE",
"771 50 LINE",
"565 575 LINE",
"504 575 LINE",
"298 51 LINE",
"90 702 LINE",
"40 702 LINE",
"261 0 LINE",
"337 0 LINE",
"534 519 LINE",
"733 0 LINE",
"809 0 LINE",
"1028 702 LINE"
);
}
);
width = 1068;
}
);
leftKerningGroup = "upper-angled";
note = W;
unicode = 0057;
},
{
glyphname = X;
lastChange = "2018-04-10 08:35:34 +0000";
layers = (
{
layerId = "3C8330F3-4770-4812-9C95-859F387513C1";
paths = (
{
closed = 1;
nodes = (
"328 355 LINE",
"545 701 LINE",
"486 701 LINE",
"296 397 LINE",
"106 701 LINE",
"47 701 LINE",
"263 355 LINE",
"40 0 LINE",
"101 0 LINE",
"296 311 LINE",
"491 0 LINE",
"551 0 LINE"
);
}
);
width = 591;
}
);
note = X;
unicode = 0058;
},
{
glyphname = Y;
lastChange = "2018-04-10 23:23:35 +0000";
layers = (
{
anchors = (
{
name = bottom;
position = "{311, 0}";
},
{
name = top;
position = "{311, 700}";
},
{
name = topleft;
position = "{20, 700}";
}
);
layerId = "3C8330F3-4770-4812-9C95-859F387513C1";
paths = (
{
closed = 1;
nodes = (
"523 701 LINE",
"311 291 LINE",
"99 701 LINE",
"40 701 LINE",
"285 235 LINE",
"285 0 LINE",
"337 0 LINE",
"337 235 LINE",
"582 701 LINE"
);
}
);
width = 622;
}
);
note = Y;
unicode = 0059;
},
{
glyphname = Z;
lastChange = "2018-04-10 23:23:39 +0000";
layers = (
{
anchors = (
{
name = bottom;
position = "{281, 0}";
},
{
name = top;
position = "{281, 700}";
}
);
layerId = "3C8330F3-4770-4812-9C95-859F387513C1";
paths = (
{
closed = 1;
nodes = (
"521 51 LINE",
"105 51 LINE",
"516 646 LINE",
"516 700 LINE",
"45 700 LINE",
"45 648 LINE",
"453 648 LINE",
"40 52 LINE",
"40 0 LINE",
"521 0 LINE"
);
}
);
width = 561;
}
);
note = Z;
unicode = 005A;
},
{
glyphname = a;
lastChange = "2018-04-18 21:43:13 +0000";
layers = (
{
anchors = (
{
name = bottom;
position = "{262, 0}";
},
{
name = ogonek;
position = "{465, 10}";
},
{
name = top;
position = "{262, 500}";
}
);
layerId = "3C8330F3-4770-4812-9C95-859F387513C1";
paths = (
{
closed = 1;
nodes = (
"463 316 LINE",
"462 367 OFFCURVE",
"461 387 OFFCURVE",
"456 410 CURVE SMOOTH",
"441 478 OFFCURVE",
"395 505 OFFCURVE",
"280 505 CURVE SMOOTH",
"261 505 OFFCURVE",
"242 503 OFFCURVE",
"221 499 CURVE SMOOTH",
"180 491 OFFCURVE",
"121 463 OFFCURVE",
"69 423 CURVE",
"106 385 LINE",
"126 402 OFFCURVE",
"159 424 OFFCURVE",
"199 439 CURVE SMOOTH",
"230 451 OFFCURVE",
"255 455 OFFCURVE",
"288 455 CURVE SMOOTH",
"361 455 OFFCURVE",
"409 447 OFFCURVE",
"409 361 CURVE SMOOTH",
"409 301 LINE",
"248 305 OFFCURVE",
"171 296 OFFCURVE",
"101 238 CURVE SMOOTH",
"68 211 OFFCURVE",
"47 174 OFFCURVE",
"47 129 CURVE SMOOTH",
"47 110 OFFCURVE",
"49 87 OFFCURVE",
"60 64 CURVE SMOOTH",
"107 -39 OFFCURVE",
"317 -29 OFFCURVE",
"410 57 CURVE",
"410 0 LINE",
"462 0 LINE"
);
},
{
closed = 1;
nodes = (
"339 42 OFFCURVE",
"204 14 OFFCURVE",
"138 57 CURVE SMOOTH",
"115 72 OFFCURVE",
"101 96 OFFCURVE",
"101 129 CURVE SMOOTH",
"101 178 OFFCURVE",
"132 210 OFFCURVE",
"184 231 CURVE SMOOTH",
"209 242 OFFCURVE",
"237 249 OFFCURVE",
"273 254 CURVE SMOOTH",
"308 259 OFFCURVE",
"351 261 OFFCURVE",
"410 264 CURVE",
"410 103 LINE"
);
}
);
width = 513;
}
);
leftKerningGroup = "rounded-low";
note = a;
unicode = 0061;
},
{
glyphname = ae;
lastChange = "2018-04-12 21:52:32 +0000";
layers = (
{
components = (
{
name = a;
transform = "{1, 0, 0, 1, -7, 0}";
}
);
layerId = "3C8330F3-4770-4812-9C95-859F387513C1";
paths = (
{
closed = 1;
nodes = (
"885 279 LINE SMOOTH",
"885 424 OFFCURVE",
"798 502 OFFCURVE",
"645 502 CURVE SMOOTH",
"490 502 OFFCURVE",
"407 412 OFFCURVE",
"403 263 CURVE SMOOTH",
"400 152 OFFCURVE",
"433 80 OFFCURVE",
"492 37 CURVE SMOOTH",
"539 2 OFFCURVE",
"598 -13 OFFCURVE",
"658 -10 CURVE SMOOTH",
"729 -7 OFFCURVE",
"797 17 OFFCURVE",
"857 62 CURVE",
"831 104 LINE",
"788 69 OFFCURVE",
"726 44 OFFCURVE",
"666 41 CURVE SMOOTH",
"610 38 OFFCURVE",
"552 51 OFFCURVE",
"515 84 CURVE SMOOTH",
"478 116 OFFCURVE",
"456 188 OFFCURVE",
"459 256 CURVE",
"885 256 LINE"
);
},
{
closed = 1;
nodes = (
"766 452 OFFCURVE",
"836 410 OFFCURVE",
"836 298 CURVE",
"460 298 LINE",
"460 419 OFFCURVE",
"542 452 OFFCURVE",
"650 452 CURVE SMOOTH"
);
}
);
width = 925;
}
);
leftKerningGroup = "rounded-low";
note = ae;
unicode = 00E6;
},
{
glyphname = b;
lastChange = "2018-04-18 21:41:55 +0000";
layers = (
{
layerId = "3C8330F3-4770-4812-9C95-859F387513C1";
paths = (
{
closed = 1;
nodes = (
"459 106 OFFCURVE",
"480 168 OFFCURVE",
"480 248 CURVE SMOOTH",
"480 329 OFFCURVE",
"455 392 OFFCURVE",
"415 433 CURVE SMOOTH",
"373 477 OFFCURVE",
"317 499 OFFCURVE",
"248 499 CURVE SMOOTH",
"205 499 OFFCURVE",
"167 499 OFFCURVE",
"102 471 CURVE",
"102 700 LINE",
"50 700 LINE",
"50 1 LINE",
"102 1 LINE",
"102 47 LINE",
"141 22 OFFCURVE",
"184 -9 OFFCURVE",
"256 -9 CURVE SMOOTH",
"328 -9 OFFCURVE",
"383 17 OFFCURVE",
"422 61 CURVE"
);
},
{
closed = 1;
nodes = (
"357 450 OFFCURVE",
"427 376 OFFCURVE",
"427 248 CURVE SMOOTH",
"427 185 OFFCURVE",
"411 134 OFFCURVE",
"380 98 CURVE SMOOTH",
"349 62 OFFCURVE",
"305 42 OFFCURVE",
"250 42 CURVE SMOOTH",
"221 42 OFFCURVE",
"192 49 OFFCURVE",
"167 59 CURVE SMOOTH",
"142 69 OFFCURVE",
"119 80 OFFCURVE",
"102 92 CURVE",
"102 420 LINE",
"137 435 OFFCURVE",
"177 450 OFFCURVE",
"232 450 CURVE SMOOTH"
);
}
);
width = 520;
}
);
note = b;
unicode = 0062;
},
{
glyphname = c;
lastChange = "2018-04-12 21:52:32 +0000";
layers = (
{
anchors = (
{
name = bottom;
position = "{250, 0}";
},
{
name = top;
position = "{250, 500}";
}
);
layerId = "3C8330F3-4770-4812-9C95-859F387513C1";
paths = (
{
closed = 1;
nodes = (
"241 -82 OFFCURVE",
"459 42 CURVE",
"429 83 LINE",
"259 -23 OFFCURVE",
"92 64 OFFCURVE",
"92 250 CURVE SMOOTH",
"92 433 OFFCURVE",
"280 518 OFFCURVE",
"429 416 CURVE",
"459 455 LINE",
"280 575 OFFCURVE",
"40 478 OFFCURVE",
"40 250 CURVE SMOOTH",
"40 26 OFFCURVE"
);
}
);
width = 499;
}
);
leftKerningGroup = "rounded-low";
note = c;
unicode = 0063;
},
{
glyphname = eth;
lastChange = "2018-04-12 21:52:32 +0000";
layers = (
{
components = (
{
name = six;
transform = "{-1, 0, 0, 1, 552, 0}";
}
);
layerId = "3C8330F3-4770-4812-9C95-859F387513C1";
paths = (
{
closed = 1;
nodes = (
"166 543 LINE",
"435 636 LINE",
"422 673 LINE",
"153 580 LINE"
);
}
);
width = 552;
}
);
leftKerningGroup = "rounded-low";
note = eth;
unicode = 00F0;
},
{
glyphname = e;
lastChange = "2018-04-12 21:52:32 +0000";
layers = (
{
anchors = (
{
name = bottom;
position = "{281, 0}";
},
{
name = ogonek;
position = "{506, 10}";
},
{
name = top;
position = "{281, 500}";
}
);
layerId = "3C8330F3-4770-4812-9C95-859F387513C1";
paths = (
{
closed = 1;
nodes = (
"522 263 LINE SMOOTH",
"522 408 OFFCURVE",
"435 502 OFFCURVE",
"282 502 CURVE SMOOTH",
"127 502 OFFCURVE",
"44 412 OFFCURVE",
"40 263 CURVE SMOOTH",
"37 152 OFFCURVE",
"70 80 OFFCURVE",
"129 37 CURVE SMOOTH",
"176 2 OFFCURVE",
"235 -13 OFFCURVE",
"295 -10 CURVE SMOOTH",
"366 -7 OFFCURVE",
"434 17 OFFCURVE",
"494 62 CURVE",
"468 104 LINE",
"425 69 OFFCURVE",
"363 44 OFFCURVE",
"303 41 CURVE SMOOTH",
"247 38 OFFCURVE",
"189 51 OFFCURVE",
"152 84 CURVE SMOOTH",
"115 116 OFFCURVE",
"93 172 OFFCURVE",
"96 240 CURVE",
"522 240 LINE"
);
},
{
closed = 1;
nodes = (
"398 452 OFFCURVE",
"468 393 OFFCURVE",
"468 281 CURVE",
"97 281 LINE",
"97 402 OFFCURVE",
"174 452 OFFCURVE",
"282 452 CURVE SMOOTH"
);
}
);
width = 562;
}
);
leftKerningGroup = "rounded-low";
note = e;
unicode = 0065;
},
{
glyphname = f;
lastChange = "2018-04-10 03:38:18 +0000";
layers = (
{
layerId = "3C8330F3-4770-4812-9C95-859F387513C1";
paths = (
{
closed = 1;
nodes = (
"209 661 OFFCURVE",
"344 661 CURVE",
"344 707 LINE",
"182 707 OFFCURVE",
"138 648 OFFCURVE",
"138 500 CURVE",
"40 500 LINE",
"40 454 LINE",
"138 454 LINE",
"138 0 LINE",
"193 0 LINE",
"193 454 LINE",
"337 454 LINE",
"337 500 LINE",
"192 500 LINE",
"192 603 OFFCURVE"
);
}
);
width = 384;
}
);
note = f;
unicode = 0066;
},
{
glyphname = g;
lastChange = "2018-04-12 21:52:32 +0000";
layers = (
{
anchors = (
{
name = bottom;
position = "{263, 0}";
},
{
name = top;
position = "{263, 500}";
}
);
layerId = "3C8330F3-4770-4812-9C95-859F387513C1";
paths = (
{
closed = 1;
nodes = (
"412 -204 OFFCURVE",
"475 -126 OFFCURVE",
"475 1 CURVE SMOOTH",
"475 499 LINE",
"422 499 LINE",
"422 451 LINE",
"236 570 OFFCURVE",
"40 473 OFFCURVE",
"40 238 CURVE SMOOTH",
"40 118 OFFCURVE",
"106 35 OFFCURVE",
"210 10 CURVE SMOOTH",
"283 -9 OFFCURVE",
"352 -4 OFFCURVE",
"422 37 CURVE",
"422 -22 OFFCURVE",
"419 -52 OFFCURVE",
"403 -88 CURVE SMOOTH",
"366 -172 OFFCURVE",
"236 -166 OFFCURVE",
"153 -115 CURVE",
"112 -155 LINE",
"159 -186 OFFCURVE",
"215 -204 OFFCURVE",
"271 -204 CURVE SMOOTH"
);
},
{
closed = 1;
nodes = (
"363 55 OFFCURVE",
"303 38 OFFCURVE",
"224 59 CURVE SMOOTH",
"139 80 OFFCURVE",
"93 146 OFFCURVE",
"93 238 CURVE SMOOTH",
"93 343 OFFCURVE",
"128 421 OFFCURVE",
"224 444 CURVE SMOOTH",
"244 449 OFFCURVE",
"264 450 OFFCURVE",
"283 448 CURVE SMOOTH",
"334 443 OFFCURVE",
"373 427 OFFCURVE",
"422 400 CURVE",
"422 88 LINE"
);
}
);
width = 525;
}
);
leftKerningGroup = "rounded-low";
note = g;
unicode = 0067;
},
{
glyphname = h;
lastChange = "2018-04-12 21:52:32 +0000";
layers = (
{
anchors = (
{
name = bottom;
position = "{262, 0}";
},
{
name = center;
position = "{213, 584}";
},
{
name = top;
position = "{262, 700}";
}
);
layerId = "3C8330F3-4770-4812-9C95-859F387513C1";
paths = (
{
closed = 1;
nodes = (
"481 292 LINE SMOOTH",
"481 360 OFFCURVE",
"461 410 OFFCURVE",
"422 443 CURVE SMOOTH",
"381 476 OFFCURVE",
"327 493 OFFCURVE",
"260 493 CURVE SMOOTH",
"213 493 OFFCURVE",
"142 466 OFFCURVE",
"104 424 CURVE",
"104 700 LINE",
"52 700 LINE",
"52 0 LINE",
"104 0 LINE",
"104 364 LINE",
"141 418 OFFCURVE",
"205 446 OFFCURVE",
"265 446 CURVE SMOOTH",
"362 446 OFFCURVE",
"429 399 OFFCURVE",
"429 292 CURVE SMOOTH",
"429 0 LINE",
"481 0 LINE"
);
}
);
width = 521;
}
);
leftKerningGroup = "angleds-low";
note = h;
unicode = 0068;
},
{
glyphname = i;
lastChange = "2018-04-12 21:52:32 +0000";
layers = (
{
components = (
{
name = idotless;
transform = "{1, 0, 0, 1, 13, 0}";
}
);
layerId = "3C8330F3-4770-4812-9C95-859F387513C1";
paths = (
{
closed = 1;
nodes = (
"112 609 OFFCURVE",
"130 627 OFFCURVE",
"130 649 CURVE SMOOTH",
"130 671 OFFCURVE",
"112 689 OFFCURVE",
"90 689 CURVE SMOOTH",
"68 689 OFFCURVE",
"50 671 OFFCURVE",
"50 649 CURVE SMOOTH",
"50 627 OFFCURVE",
"68 609 OFFCURVE",
"90 609 CURVE SMOOTH"
);
}
);
width = 180;
}
);
leftKerningGroup = "angleds-low";
note = i;
unicode = 0069;
},
{
glyphname = idotless;
lastChange = "2018-04-12 21:52:32 +0000";
layers = (
{
anchors = (
{
name = bottom;
position = "{77, 0}";
},
{
name = ogonek;
position = "{149, 10}";
},
{
name = top;
position = "{77, 500}";
}
);
layerId = "3C8330F3-4770-4812-9C95-859F387513C1";
paths = (
{
closed = 1;
nodes = (
"102 500 LINE",
"50 500 LINE",
"50 0 LINE",
"102 0 LINE"
);
}
);
width = 152;
}
);
unicode = 0131;
},
{
glyphname = imacron;
lastChange = "2018-04-12 21:52:32 +0000";
layers = (
{
anchors = (
{
name = _top;
position = "{134, 500}";
},
{
name = top;
position = "{134, 640}";
}
);
components = (
{
name = idotless;
transform = "{1, 0, 0, 1, 57, 0}";
}
);
layerId = "3C8330F3-4770-4812-9C95-859F387513C1";
paths = (
{
closed = 1;
nodes = (
"229 640 LINE",
"40 640 LINE",
"40 595 LINE",
"229 595 LINE"
);
}
);
width = 269;
}
);
leftKerningGroup = "angled-low";
unicode = 012B;
},
{
glyphname = j;
lastChange = "2018-04-12 23:21:03 +0000";
layers = (
{
layerId = "3C8330F3-4770-4812-9C95-859F387513C1";
paths = (
{
closed = 1;
nodes = (
"116 -174 OFFCURVE",
"185 -116 OFFCURVE",
"185 34 CURVE SMOOTH",
"185 500 LINE",
"134 500 LINE",
"134 34 LINE SMOOTH",
"134 -92 OFFCURVE",
"90 -121 OFFCURVE",
"-30 -126 CURVE",
"-30 -177 LINE"
);
},
{
closed = 1;
nodes = (
"180 609 OFFCURVE",
"198 627 OFFCURVE",
"198 649 CURVE SMOOTH",
"198 671 OFFCURVE",
"180 689 OFFCURVE",
"158 689 CURVE SMOOTH",
"136 689 OFFCURVE",
"118 671 OFFCURVE",
"118 649 CURVE SMOOTH",
"118 627 OFFCURVE",
"136 609 OFFCURVE",
"158 609 CURVE SMOOTH"
);
}
);
width = 248;
}
);
note = j;
unicode = 006A;
},
{
glyphname = k;
lastChange = "2018-04-12 21:52:32 +0000";
layers = (
{
anchors = (
{
name = bottom;
position = "{249, 0}";
},
{
name = top;
position = "{249, 500}";
}
);
layerId = "3C8330F3-4770-4812-9C95-859F387513C1";
paths = (
{
closed = 1;
nodes = (
"213 348 LINE",
"378 487 LINE",
"299 487 LINE",
"103 327 LINE",
"103 700 LINE",
"50 700 LINE",
"50 0 LINE",
"103 0 LINE",
"103 257 LINE",
"172 314 LINE",
"389 0 LINE",
"449 0 LINE"
);
}
);
width = 489;
}
);
leftKerningGroup = "angleds-low";
note = k;
unicode = 006B;
},
{
glyphname = l;
lastChange = "2018-04-10 23:25:24 +0000";
layers = (
{
anchors = (
{
name = bottom;
position = "{76, 0}";
},
{
name = center;
position = "{76, 323}";
},
{
name = top;
position = "{76, 700}";
},
{
name = topright;
position = "{132, 500}";
}
);
layerId = "3C8330F3-4770-4812-9C95-859F387513C1";
paths = (
{
closed = 1;
nodes = (
"102 700 LINE",
"50 700 LINE",
"50 0 LINE",
"102 0 LINE"
);
}
);
width = 152;
}
);
note = l;
unicode = 006C;
},
{
glyphname = m;
lastChange = "2018-04-18 21:40:01 +0000";
layers = (
{
layerId = "3C8330F3-4770-4812-9C95-859F387513C1";
paths = (
{
closed = 1;
nodes = (
"808 300 LINE SMOOTH",
"808 506 OFFCURVE",
"560 578 OFFCURVE",
"435 415 CURVE",
"344 532 OFFCURVE",
"175 531 OFFCURVE",
"101 440 CURVE",
"101 500 LINE",
"50 500 LINE",
"50 0 LINE",
"101 0 LINE",
"101 374 LINE",
"138 421 OFFCURVE",
"187 459 OFFCURVE",
"249 459 CURVE SMOOTH",
"342 459 OFFCURVE",
"407 408 OFFCURVE",
"407 300 CURVE SMOOTH",
"407 0 LINE",
"458 0 LINE",
"458 300 LINE SMOOTH",
"458 403 OFFCURVE",
"519 459 OFFCURVE",
"608 459 CURVE SMOOTH",
"696 459 OFFCURVE",
"757 403 OFFCURVE",
"757 300 CURVE SMOOTH",
"757 0 LINE",
"808 0 LINE"
);
}
);
width = 848;
}
);
leftKerningGroup = "angleds-low";
note = m;
unicode = 006D;
},
{
glyphname = n;
lastChange = "2018-04-12 21:52:32 +0000";
layers = (
{
anchors = (
{
name = bottom;
position = "{260, 0}";
},
{
name = top;
position = "{260, 500}";
}
);
layerId = "3C8330F3-4770-4812-9C95-859F387513C1";
paths = (
{
closed = 1;
nodes = (
"480 300 LINE SMOOTH",
"480 506 OFFCURVE",
"241 570 OFFCURVE",
"102 434 CURVE",
"102 500 LINE",
"50 500 LINE",
"50 0 LINE",
"102 0 LINE",
"102 375 LINE",
"119 392 OFFCURVE",
"141 413 OFFCURVE",
"168 430 CURVE SMOOTH",
"195 446 OFFCURVE",
"228 459 OFFCURVE",
"263 459 CURVE SMOOTH",
"360 459 OFFCURVE",
"428 407 OFFCURVE",
"428 300 CURVE SMOOTH",
"428 0 LINE",
"480 0 LINE"
);
}
);
width = 520;
}
);
leftKerningGroup = "angleds-low";
note = n;
unicode = 006E;
},
{
glyphname = eng;
lastChange = "2018-04-10 23:53:24 +0000";
layers = (
{
components = (
{
name = n;
}
);
layerId = "3C8330F3-4770-4812-9C95-859F387513C1";
paths = (
{
closed = 1;
nodes = (
"344 -139 LINE",
"426 -124 OFFCURVE",
"480 -85 OFFCURVE",
"480 -3 CURVE SMOOTH",
"480 6 OFFCURVE",
"480 14 OFFCURVE",
"480 22 CURVE",
"428 22 LINE",
"428 14 OFFCURVE",
"428 6 OFFCURVE",
"428 -3 CURVE SMOOTH",
"428 -52 OFFCURVE",
"399 -77 OFFCURVE",
"344 -88 CURVE"
);
}
);
width = 520;
}
);
unicode = 014B;
},
{
glyphname = o;
lastChange = "2018-04-17 07:29:51 +0000";
layers = (
{
anchors = (
{
name = bottom;
position = "{282, 0}";
},
{
name = center;
position = "{282, 250}";
},
{
name = ogonek;
position = "{508, 10}";
},
{
name = top;
position = "{282, 500}";
},
{
name = topright;
position = "{544, 500}";
}
);
layerId = "3C8330F3-4770-4812-9C95-859F387513C1";
paths = (
{
closed = 1;
nodes = (
"422 -11 OFFCURVE",
"524 88 OFFCURVE",
"524 241 CURVE SMOOTH",
"524 419 OFFCURVE",
"435 507 OFFCURVE",
"282 507 CURVE SMOOTH",
"141 507 OFFCURVE",
"40 419 OFFCURVE",
"40 241 CURVE SMOOTH",
"40 90 OFFCURVE",
"140 -11 OFFCURVE",
"282 -11 CURVE SMOOTH"
);
},
{
closed = 1;
nodes = (
"168 40 OFFCURVE",
"91 127 OFFCURVE",
"91 241 CURVE SMOOTH",
"91 366 OFFCURVE",
"155 459 OFFCURVE",
"282 459 CURVE SMOOTH",
"406 459 OFFCURVE",
"473 369 OFFCURVE",
"473 241 CURVE SMOOTH",
"473 127 OFFCURVE",
"405 40 OFFCURVE",
"282 40 CURVE SMOOTH"
);
}
);
width = 564;
}
);
leftKerningGroup = "rounded-low";
note = o;
unicode = 006F;
},
{
glyphname = p;
lastChange = "2018-04-12 21:52:32 +0000";
layers = (
{
layerId = "3C8330F3-4770-4812-9C95-859F387513C1";
paths = (
{
closed = 1;
nodes = (
"383 475 OFFCURVE",
"328 501 OFFCURVE",
"256 501 CURVE SMOOTH",
"184 501 OFFCURVE",
"141 480 OFFCURVE",
"102 455 CURVE",
"102 491 LINE",
"50 491 LINE",
"50 -170 LINE",
"102 -170 LINE",
"102 37 LINE",
"167 9 OFFCURVE",
"205 -2 OFFCURVE",
"248 -2 CURVE SMOOTH",
"317 -2 OFFCURVE",
"373 20 OFFCURVE",
"415 64 CURVE SMOOTH",
"455 105 OFFCURVE",
"480 168 OFFCURVE",
"480 244 CURVE SMOOTH",
"480 324 OFFCURVE",
"459 386 OFFCURVE",
"422 431 CURVE"
);
},
{
closed = 1;
nodes = (
"177 47 OFFCURVE",
"137 62 OFFCURVE",
"102 77 CURVE",
"102 400 LINE",
"119 412 OFFCURVE",
"142 423 OFFCURVE",
"167 433 CURVE SMOOTH",
"192 443 OFFCURVE",
"221 450 OFFCURVE",
"250 450 CURVE SMOOTH",
"305 450 OFFCURVE",
"349 430 OFFCURVE",
"380 394 CURVE SMOOTH",
"411 358 OFFCURVE",
"427 307 OFFCURVE",
"427 244 CURVE SMOOTH",
"427 121 OFFCURVE",
"357 47 OFFCURVE",
"232 47 CURVE SMOOTH"
);
}
);
width = 520;
}
);
leftKerningGroup = "angleds-low";
note = p;
unicode = 0070;
},
{
glyphname = thorn;
lastChange = "2018-04-10 03:51:08 +0000";
layers = (
{
layerId = "3C8330F3-4770-4812-9C95-859F387513C1";
paths = (
{
closed = 1;
nodes = (
"415 56 OFFCURVE",
"481 136 OFFCURVE",
"481 255 CURVE SMOOTH",
"481 399 OFFCURVE",
"423 475 OFFCURVE",
"311 502 CURVE SMOOTH",
"251 517 OFFCURVE",
"173 510 OFFCURVE",
"103 465 CURVE",
"103 700 LINE",
"50 700 LINE",
"50 -170 LINE",
"103 -170 LINE",
"103 49 LINE",
"173 14 OFFCURVE",
"242 12 OFFCURVE",
"311 29 CURVE SMOOTH"
);
},
{
closed = 1;
nodes = (
"393 429 OFFCURVE",
"428 360 OFFCURVE",
"428 255 CURVE SMOOTH",
"428 164 OFFCURVE",
"382 99 OFFCURVE",
"297 78 CURVE SMOOTH",
"276 73 OFFCURVE",
"256 71 OFFCURVE",
"237 71 CURVE SMOOTH",
"218 71 OFFCURVE",
"201 72 OFFCURVE",
"185 75 CURVE",
"152 80 OFFCURVE",
"126 90 OFFCURVE",
"103 101 CURVE",
"103 409 LINE",
"126 424 OFFCURVE",
"155 437 OFFCURVE",
"188 447 CURVE SMOOTH",
"220 456 OFFCURVE",
"258 461 OFFCURVE",
"297 452 CURVE SMOOTH"
);
}
);
width = 521;
}
);
note = thorn;
unicode = 00FE;
},
{
glyphname = q;
lastChange = "2018-04-12 21:52:32 +0000";
layers = (
{
layerId = "3C8330F3-4770-4812-9C95-859F387513C1";
paths = (
{
closed = 1;
nodes = (
"61 385 OFFCURVE",
"40 323 OFFCURVE",
"40 243 CURVE SMOOTH",
"40 167 OFFCURVE",
"65 104 OFFCURVE",
"105 63 CURVE SMOOTH",
"147 19 OFFCURVE",
"203 -3 OFFCURVE",
"272 -3 CURVE SMOOTH",
"315 -3 OFFCURVE",
"353 8 OFFCURVE",
"418 36 CURVE",
"418 -170 LINE",
"470 -170 LINE",
"470 490 LINE",
"418 490 LINE",
"418 454 LINE",
"379 479 OFFCURVE",
"336 500 OFFCURVE",
"264 500 CURVE SMOOTH",
"192 500 OFFCURVE",
"137 474 OFFCURVE",
"98 430 CURVE"
);
},
{
closed = 1;
nodes = (
"163 46 OFFCURVE",
"93 120 OFFCURVE",
"93 243 CURVE SMOOTH",
"93 306 OFFCURVE",
"109 357 OFFCURVE",
"140 393 CURVE SMOOTH",
"171 429 OFFCURVE",
"215 449 OFFCURVE",
"270 449 CURVE SMOOTH",
"299 449 OFFCURVE",
"328 442 OFFCURVE",
"353 432 CURVE SMOOTH",
"378 422 OFFCURVE",
"401 411 OFFCURVE",
"418 399 CURVE",
"418 76 LINE",
"383 61 OFFCURVE",
"343 46 OFFCURVE",
"288 46 CURVE SMOOTH"
);
}
);
width = 520;
}
);
leftKerningGroup = "rounded-low";
note = q;
unicode = 0071;
},
{
glyphname = r;
lastChange = "2018-04-12 21:52:32 +0000";
layers = (
{
anchors = (
{
name = bottom;
position = "{194, 0}";
},
{
name = top;
position = "{194, 500}";
}
);
layerId = "3C8330F3-4770-4812-9C95-859F387513C1";
paths = (
{
closed = 1;
nodes = (
"262 520 OFFCURVE",
"179 504 OFFCURVE",
"103 428 CURVE",
"103 500 LINE",
"50 500 LINE",
"50 0 LINE",
"103 0 LINE",
"103 356 LINE",
"161 435 OFFCURVE",
"238 473 OFFCURVE",
"330 455 CURVE",
"357 499 LINE"
);
}
);
width = 387;
}
);
leftKerningGroup = "angleds-low";
note = r;
unicode = 0072;
},
{
glyphname = s;
lastChange = "2018-04-18 21:45:46 +0000";
layers = (
{
anchors = (
{
name = bottom;
position = "{205, 0}";
},
{
name = top;
position = "{205, 500}";
}
);
layerId = "3C8330F3-4770-4812-9C95-859F387513C1";
paths = (
{
closed = 1;
nodes = (
"343 50 OFFCURVE",
"358 74 OFFCURVE",
"365 100 CURVE SMOOTH",
"372 127 OFFCURVE",
"373 158 OFFCURVE",
"358 188 CURVE SMOOTH",
"343 218 OFFCURVE",
"311 247 OFFCURVE",
"255 266 CURVE SMOOTH",
"240 271 OFFCURVE",
"189 287 OFFCURVE",
"184 289 CURVE SMOOTH",
"127 308 OFFCURVE",
"85 330 OFFCURVE",
"92 384 CURVE",
"95 418 OFFCURVE",
"120 445 OFFCURVE",
"161 453 CURVE SMOOTH",
"219 463 OFFCURVE",
"261 452 OFFCURVE",
"313 424 CURVE",
"346 459 LINE",
"327 475 OFFCURVE",
"300 486 OFFCURVE",
"269 494 CURVE SMOOTH",
"234 503 OFFCURVE",
"196 506 OFFCURVE",
"163 502 CURVE SMOOTH",
"127 497 OFFCURVE",
"99 485 OFFCURVE",
"78 466 CURVE",
"37 426 OFFCURVE",
"28 364 OFFCURVE",
"59 316 CURVE SMOOTH",
"118 227 OFFCURVE",
"283 247 OFFCURVE",
"320 158 CURVE SMOOTH",
"333 127 OFFCURVE",
"314 88 OFFCURVE",
"287 67 CURVE SMOOTH",
"225 17 OFFCURVE",
"146 36 OFFCURVE",
"72 88 CURVE",
"40 51 LINE",
"77 21 OFFCURVE",
"140 -9 OFFCURVE",
"201 -9 CURVE SMOOTH",
"246 -9 OFFCURVE",
"285 4 OFFCURVE",
"319 31 CURVE SMOOTH"
);
}
);
width = 410;
}
);
leftKerningGroup = "rounded-low";
note = s;
unicode = 0073;
},
{
glyphname = germandbls;
lastChange = "2018-04-10 03:54:57 +0000";
layers = (
{
layerId = "3C8330F3-4770-4812-9C95-859F387513C1";
paths = (
{
closed = 1;
nodes = (
"530 100 OFFCURVE",
"530 196 CURVE SMOOTH",
"530 263 OFFCURVE",
"498 319 OFFCURVE",
"422 366 CURVE",
"446 393 LINE SMOOTH",
"477 428 OFFCURVE",
"492 478 OFFCURVE",
"492 521 CURVE SMOOTH",
"492 623 OFFCURVE",
"419 700 OFFCURVE",
"321 700 CURVE SMOOTH",
"50 700 LINE",
"50 0 LINE",
"103 0 LINE",
"103 327 LINE",
"358 327 LINE SMOOTH",
"430 327 OFFCURVE",
"477 265 OFFCURVE",
"477 196 CURVE SMOOTH",
"477 129 OFFCURVE",
"425 50 OFFCURVE",
"355 50 CURVE SMOOTH",
"180 50 LINE",
"180 0 LINE",
"355 0 LINE SMOOTH",
"447 0 OFFCURVE"
);
},
{
closed = 1;
nodes = (
"439 592 OFFCURVE",
"439 521 CURVE SMOOTH",
"439 447 OFFCURVE",
"383 373 OFFCURVE",
"317 373 CURVE SMOOTH",
"103 373 LINE",
"103 650 LINE",
"321 650 LINE SMOOTH",
"394 650 OFFCURVE"
);
}
);
width = 570;
}
);
note = germandbls;
unicode = 00DF;
},
{
glyphname = t;
lastChange = "2018-04-18 21:45:02 +0000";
layers = (
{
anchors = (
{
name = bottom;
position = "{192, 0}";
},
{
name = center;
position = "{192, 607}";
},
{
name = top;
position = "{192, 700}";
},
{
name = topright;
position = "{364, 695}";
}
);
layerId = "3C8330F3-4770-4812-9C95-859F387513C1";
paths = (
{
closed = 1;
nodes = (
"136 53 OFFCURVE",
"211 -6 OFFCURVE",
"344 -6 CURVE",
"344 41 LINE",
"241 41 OFFCURVE",
"189 84 OFFCURVE",
"189 208 CURVE SMOOTH",
"189 451 LINE",
"324 451 LINE",
"324 500 LINE",
"189 500 LINE",
"189 700 LINE",
"136 700 LINE",
"136 500 LINE",
"40 500 LINE",
"40 451 LINE",
"136 451 LINE",
"136 208 LINE SMOOTH"
);
}
);
width = 385;
}
);
note = t;
unicode = 0074;
},
{
glyphname = u;
lastChange = "2018-04-12 21:52:32 +0000";
layers = (
{
anchors = (
{
name = bottom;
position = "{260, 0}";
},
{
name = ogonek;
position = "{467, 10}";
},
{
name = top;
position = "{260, 500}";
},
{
name = topright;
position = "{499, 500}";
}
);
layerId = "3C8330F3-4770-4812-9C95-859F387513C1";
paths = (
{
closed = 1;
nodes = (
"469 500 LINE",
"417 500 LINE",
"417 131 LINE",
"402 92 OFFCURVE",
"329 41 OFFCURVE",
"257 41 CURVE SMOOTH",
"160 41 OFFCURVE",
"93 92 OFFCURVE",
"93 200 CURVE SMOOTH",
"93 500 LINE",
"40 500 LINE",
"40 200 LINE SMOOTH",
"40 131 OFFCURVE",
"63 80 OFFCURVE",
"103 46 CURVE SMOOTH",
"142 12 OFFCURVE",
"195 -6 OFFCURVE",
"262 -6 CURVE SMOOTH",
"324 -6 OFFCURVE",
"383 31 OFFCURVE",
"417 65 CURVE",
"417 0 LINE",
"469 0 LINE"
);
}
);
width = 519;
}
);
leftKerningGroup = "rounded-low";
note = u;
unicode = 0075;
},
{
glyphname = v;
lastChange = "2018-04-12 21:52:32 +0000";
layers = (
{
layerId = "3C8330F3-4770-4812-9C95-859F387513C1";
paths = (
{
closed = 1;
nodes = (
"443 500 LINE",
"269 55 LINE",
"95 500 LINE",
"40 500 LINE",
"229 0 LINE",
"308 0 LINE",
"498 500 LINE"
);
}
);
width = 538;
}
);
leftKerningGroup = "angled-low";
note = v;
unicode = 0076;
},
{
glyphname = w;
lastChange = "2018-04-12 21:52:32 +0000";
layers = (
{
anchors = (
{
name = bottom;
position = "{434, 0}";
},
{
name = top;
position = "{434, 500}";
}
);
layerId = "3C8330F3-4770-4812-9C95-859F387513C1";
paths = (
{
closed = 1;
nodes = (
"779 500 LINE",
"622 49 LINE",
"470 500 LINE",
"399 500 LINE",
"248 49 LINE",
"90 500 LINE",
"40 500 LINE",
"209 0 LINE",
"286 0 LINE",
"434 453 LINE",
"583 0 LINE",
"660 0 LINE",
"828 500 LINE"
);
}
);
width = 868;
}
);
leftKerningGroup = "angled-low";
note = w;
unicode = 0077;
},
{
glyphname = x;
lastChange = "2018-04-12 21:52:32 +0000";
layers = (
{
layerId = "3C8330F3-4770-4812-9C95-859F387513C1";
paths = (
{
closed = 1;
nodes = (
"268 254 LINE",
"421 500 LINE",
"361 500 LINE",
"233 293 LINE",
"104 500 LINE",
"43 500 LINE",
"198 254 LINE",
"40 0 LINE",
"100 0 LINE",
"233 215 LINE",
"368 0 LINE",
"428 0 LINE"
);
}
);
width = 468;
}
);
leftKerningGroup = "angled-low";
note = x;
unicode = 0078;
},
{
glyphname = y;
lastChange = "2018-04-12 21:52:32 +0000";
layers = (
{
anchors = (
{
name = bottom;
position = "{266, 0}";
},
{
name = top;
position = "{266, 500}";
}
);
layerId = "3C8330F3-4770-4812-9C95-859F387513C1";
paths = (
{
closed = 1;
nodes = (
"432 500 LINE",
"269 57 LINE",
"97 500 LINE",
"40 500 LINE",
"236 -11 LINE",
"231 -30 LINE",
"208 -82 OFFCURVE",
"164 -121 OFFCURVE",
"111 -121 CURVE",
"111 -170 LINE",
"193 -170 OFFCURVE",
"267 -94 OFFCURVE",
"302 -1 CURVE SMOOTH",
"491 500 LINE"
);
}
);
width = 531;
}
);
leftKerningGroup = "angled-low";
note = y;
unicode = 0079;
},
{
glyphname = z;
lastChange = "2018-04-10 23:26:25 +0000";
layers = (
{
anchors = (
{
name = bottom;
position = "{235, 0}";
},
{
name = top;
position = "{235, 500}";
}
);
layerId = "3C8330F3-4770-4812-9C95-859F387513C1";
paths = (
{
closed = 1;
nodes = (
"430 53 LINE",
"110 53 LINE",
"430 450 LINE",
"430 500 LINE",
"47 500 LINE",
"47 447 LINE",
"360 447 LINE",
"40 45 LINE",
"40 0 LINE",
"430 0 LINE"
);
}
);
width = 470;
}
);
note = z;
unicode = 007A;
},
{
glyphname = zero;
lastChange = "2018-04-09 03:35:39 +0000";
layers = (
{
layerId = "3C8330F3-4770-4812-9C95-859F387513C1";
paths = (
{
closed = 1;
nodes = (
"608 165 OFFCURVE",
"632 254 OFFCURVE",
"632 350 CURVE SMOOTH",
"632 445 OFFCURVE",
"608 534 OFFCURVE",
"559 599 CURVE SMOOTH",
"510 663 OFFCURVE",
"436 705 OFFCURVE",
"336 705 CURVE SMOOTH",
"236 705 OFFCURVE",
"162 665 OFFCURVE",
"113 601 CURVE SMOOTH",
"64 537 OFFCURVE",
"40 447 OFFCURVE",
"40 350 CURVE SMOOTH",
"40 254 OFFCURVE",
"65 165 OFFCURVE",
"113 100 CURVE SMOOTH",
"162 36 OFFCURVE",
"235 -5 OFFCURVE",
"336 -5 CURVE SMOOTH",
"436 -5 OFFCURVE",
"510 36 OFFCURVE",
"559 100 CURVE SMOOTH"
);
},
{
closed = 1;
nodes = (
"562 505 OFFCURVE",
"579 430 OFFCURVE",
"578 350 CURVE SMOOTH",
"578 271 OFFCURVE",
"562 195 OFFCURVE",
"522 139 CURVE SMOOTH",
"483 83 OFFCURVE",
"420 47 OFFCURVE",
"336 47 CURVE SMOOTH",
"251 47 OFFCURVE",
"188 83 OFFCURVE",
"148 139 CURVE SMOOTH",
"109 195 OFFCURVE",
"93 271 OFFCURVE",
"93 350 CURVE SMOOTH",
"93 429 OFFCURVE",
"109 505 OFFCURVE",
"149 561 CURVE SMOOTH",
"188 617 OFFCURVE",
"251 651 OFFCURVE",
"336 651 CURVE SMOOTH",
"420 651 OFFCURVE",
"483 617 OFFCURVE",
"522 561 CURVE SMOOTH"
);
}
);
width = 672;
}
);
note = zero;
unicode = 0030;
},
{
glyphname = one;
lastChange = "2018-04-12 08:35:17 +0000";
layers = (
{
layerId = "3C8330F3-4770-4812-9C95-859F387513C1";
paths = (
{
closed = 1;
nodes = (
"308 48 LINE",
"207 48 LINE",
"207 700 LINE",
"138 700 LINE",
"42 620 LINE",
"76 585 LINE",
"155 650 LINE",
"155 48 LINE",
"40 48 LINE",
"40 0 LINE",
"308 0 LINE"
);
}
);
width = 348;
}
);
note = one;
unicode = 0031;
},
{
glyphname = two;
lastChange = "2018-05-22 02:02:04 +0000";
layers = (
{
layerId = "3C8330F3-4770-4812-9C95-859F387513C1";
paths = (
{
closed = 1;
nodes = (
"517 51 LINE",
"111 51 LINE",
"111 131 OFFCURVE",
"126 119 OFFCURVE",
"269 205 CURVE SMOOTH",
"332 243 OFFCURVE",
"392 285 OFFCURVE",
"439 330 CURVE SMOOTH",
"538 425 OFFCURVE",
"539 543 OFFCURVE",
"445 637 CURVE SMOOTH",
"402 680 OFFCURVE",
"348 704 OFFCURVE",
"283 707 CURVE SMOOTH",
"116 712 OFFCURVE",
"51 633 OFFCURVE",
"40 545 CURVE",
"94 545 LINE",
"98 574 OFFCURVE",
"110 598 OFFCURVE",
"130 616 CURVE SMOOTH",
"165 647 OFFCURVE",
"217 658 OFFCURVE",
"281 654 CURVE SMOOTH",
"330 651 OFFCURVE",
"376 632 OFFCURVE",
"408 600 CURVE SMOOTH",
"492 513 OFFCURVE",
"474 426 OFFCURVE",
"385 346 CURVE SMOOTH",
"320 288 OFFCURVE",
"277 269 OFFCURVE",
"152 191 CURVE",
"48 127 OFFCURVE",
"57 122 OFFCURVE",
"57 0 CURVE",
"517 0 LINE"
);
}
);
width = 557;
}
);
note = two;
unicode = 0032;
},
{
glyphname = three;
lastChange = "2018-05-22 01:57:30 +0000";
layers = (
{
layerId = "3C8330F3-4770-4812-9C95-859F387513C1";
paths = (
{
closed = 1;
nodes = (
"40 124 LINE",
"45 115 OFFCURVE",
"55 98 OFFCURVE",
"57 96 CURVE",
"97 32 OFFCURVE",
"172 -8 OFFCURVE",
"259 -8 CURVE SMOOTH",
"323 -8 OFFCURVE",
"379 15 OFFCURVE",
"420 51 CURVE SMOOTH",
"460 86 OFFCURVE",
"484 135 OFFCURVE",
"484 190 CURVE SMOOTH",
"484 250 OFFCURVE",
"459 322 OFFCURVE",
"374 362 CURVE",
"450 412 OFFCURVE",
"469 465 OFFCURVE",
"469 520 CURVE SMOOTH",
"469 571 OFFCURVE",
"452 617 OFFCURVE",
"413 650 CURVE SMOOTH",
"374 683 OFFCURVE",
"322 704 OFFCURVE",
"265 704 CURVE SMOOTH",
"240 704 OFFCURVE",
"214 699 OFFCURVE",
"188 690 CURVE",
"139 671 OFFCURVE",
"102 638 OFFCURVE",
"79 597 CURVE",
"75 589 OFFCURVE",
"70 578 OFFCURVE",
"66 565 CURVE",
"119 549 LINE",
"126 573 OFFCURVE",
"134 590 OFFCURVE",
"159 613 CURVE SMOOTH",
"188 639 OFFCURVE",
"226 653 OFFCURVE",
"265 653 CURVE SMOOTH",
"308 653 OFFCURVE",
"345 637 OFFCURVE",
"373 614 CURVE SMOOTH",
"400 591 OFFCURVE",
"417 557 OFFCURVE",
"417 520 CURVE SMOOTH",
"417 483 OFFCURVE",
"400 449 OFFCURVE",
"373 424 CURVE SMOOTH",
"344 398 OFFCURVE",
"304 385 OFFCURVE",
"259 385 CURVE SMOOTH",
"201 385 LINE",
"201 339 LINE",
"259 339 LINE SMOOTH",
"304 339 OFFCURVE",
"349 324 OFFCURVE",
"380 297 CURVE SMOOTH",
"411 270 OFFCURVE",
"432 230 OFFCURVE",
"432 190 CURVE SMOOTH",
"432 147 OFFCURVE",
"411 112 OFFCURVE",
"380 85 CURVE SMOOTH",
"348 58 OFFCURVE",
"304 43 OFFCURVE",
"259 43 CURVE SMOOTH",
"240 43 OFFCURVE",
"221 46 OFFCURVE",
"204 52 CURVE SMOOTH",
"172 63 OFFCURVE",
"129 85 OFFCURVE",
"98 128 CURVE"
);
}
);
width = 524;
}
);
note = three;
unicode = 0033;
},
{
glyphname = four;
lastChange = "2018-04-12 08:35:17 +0000";
layers = (
{
layerId = "3C8330F3-4770-4812-9C95-859F387513C1";
paths = (
{
closed = 1;
nodes = (
"547 244 LINE",
"436 244 LINE",
"436 702 LINE",
"322 702 LINE",
"40 256 LINE",
"40 198 LINE",
"385 198 LINE",
"385 0 LINE",
"436 0 LINE",
"436 198 LINE",
"547 198 LINE"
);
},
{
closed = 1;
nodes = (
"87 244 LINE",
"345 650 LINE",
"385 650 LINE",
"385 244 LINE"
);
}
);
width = 587;
}
);
note = four;
unicode = 0034;
},
{
glyphname = five;
lastChange = "2018-04-12 08:35:17 +0000";
layers = (
{
layerId = "3C8330F3-4770-4812-9C95-859F387513C1";
paths = (
{
closed = 1;
nodes = (
"455 103 OFFCURVE",
"481 160 OFFCURVE",
"481 224 CURVE SMOOTH",
"481 287 OFFCURVE",
"460 343 OFFCURVE",
"423 386 CURVE",
"383 431 OFFCURVE",
"326 453 OFFCURVE",
"265 453 CURVE SMOOTH",
"249 453 OFFCURVE",
"234 451 OFFCURVE",
"215 447 CURVE",
"195 442 OFFCURVE",
"171 432 OFFCURVE",
"139 419 CURVE",
"167 652 LINE",
"469 652 LINE",
"469 700 LINE",
"116 700 LINE",
"83 375 LINE",
"141 353 LINE",
"176 384 OFFCURVE",
"217 403 OFFCURVE",
"265 403 CURVE SMOOTH",
"314 403 OFFCURVE",
"356 384 OFFCURVE",
"385 351 CURVE SMOOTH",
"414 318 OFFCURVE",
"430 272 OFFCURVE",
"430 224 CURVE SMOOTH",
"430 173 OFFCURVE",
"411 131 OFFCURVE",
"376 98 CURVE SMOOTH",
"343 65 OFFCURVE",
"297 44 OFFCURVE",
"248 44 CURVE SMOOTH",
"173 44 OFFCURVE",
"129 65 OFFCURVE",
"78 114 CURVE",
"40 77 LINE",
"99 18 OFFCURVE",
"157 -6 OFFCURVE",
"248 -6 CURVE SMOOTH",
"312 -6 OFFCURVE",
"369 21 OFFCURVE",
"412 62 CURVE SMOOTH"
);
}
);
width = 521;
}
);
note = five;
unicode = 0035;
},
{
glyphname = six;
lastChange = "2018-04-12 08:35:17 +0000";
layers = (
{
layerId = "3C8330F3-4770-4812-9C95-859F387513C1";
paths = (
{
closed = 1;
nodes = (
"486 103 OFFCURVE",
"512 159 OFFCURVE",
"512 223 CURVE SMOOTH",
"512 287 OFFCURVE",
"486 344 OFFCURVE",
"443 385 CURVE SMOOTH",
"400 426 OFFCURVE",
"341 451 OFFCURVE",
"276 451 CURVE SMOOTH",
"238 451 OFFCURVE",
"180 441 OFFCURVE",
"135 399 CURVE",
"197 504 OFFCURVE",
"267 593 OFFCURVE",
"374 700 CURVE",
"308 700 LINE",
"288 679 OFFCURVE",
"254 643 OFFCURVE",
"228 614 CURVE SMOOTH",
"88 454 OFFCURVE",
"40 334 OFFCURVE",
"40 223 CURVE SMOOTH",
"40 159 OFFCURVE",
"66 103 OFFCURVE",
"109 62 CURVE SMOOTH",
"152 21 OFFCURVE",
"210 -5 OFFCURVE",
"275 -5 CURVE SMOOTH",
"340 -5 OFFCURVE",
"399 19 OFFCURVE",
"443 62 CURVE SMOOTH"
);
},
{
closed = 1;
nodes = (
"439 316 OFFCURVE",
"460 272 OFFCURVE",
"460 223 CURVE SMOOTH",
"460 175 OFFCURVE",
"439 130 OFFCURVE",
"407 99 CURVE SMOOTH",
"374 67 OFFCURVE",
"329 46 OFFCURVE",
"278 46 CURVE SMOOTH",
"227 46 OFFCURVE",
"183 67 OFFCURVE",
"150 99 CURVE",
"115 130 OFFCURVE",
"95 175 OFFCURVE",
"95 223 CURVE SMOOTH",
"95 272 OFFCURVE",
"115 317 OFFCURVE",
"150 348 CURVE",
"183 380 OFFCURVE",
"227 399 OFFCURVE",
"278 399 CURVE SMOOTH",
"329 399 OFFCURVE",
"374 380 OFFCURVE",
"407 348 CURVE SMOOTH"
);
}
);
width = 552;
}
);
note = six;
unicode = 0036;
},
{
glyphname = seven;
lastChange = "2018-04-12 08:35:17 +0000";
layers = (
{
layerId = "3C8330F3-4770-4812-9C95-859F387513C1";
paths = (
{
closed = 1;
nodes = (
"40 702 LINE",
"40 650 LINE",
"362 650 LINE",
"149 0 LINE",
"209 0 LINE",
"420 650 LINE",
"421 702 LINE"
);
}
);
width = 461;
}
);
note = seven;
unicode = 0037;
},
{
glyphname = eight;
lastChange = "2018-04-12 08:35:17 +0000";
layers = (
{
layerId = "3C8330F3-4770-4812-9C95-859F387513C1";
paths = (
{
closed = 1;
nodes = (
"478 91 OFFCURVE",
"503 141 OFFCURVE",
"503 197 CURVE SMOOTH",
"503 261 OFFCURVE",
"463 338 OFFCURVE",
"378 375 CURVE",
"446 411 OFFCURVE",
"472 478 OFFCURVE",
"472 526 CURVE SMOOTH",
"472 575 OFFCURVE",
"450 620 OFFCURVE",
"414 652 CURVE SMOOTH",
"378 685 OFFCURVE",
"327 705 OFFCURVE",
"271 705 CURVE SMOOTH",
"215 705 OFFCURVE",
"166 684 OFFCURVE",
"130 652 CURVE SMOOTH",
"93 620 OFFCURVE",
"71 575 OFFCURVE",
"71 526 CURVE SMOOTH",
"71 477 OFFCURVE",
"100 410 OFFCURVE",
"165 375 CURVE",
"81 340 OFFCURVE",
"40 260 OFFCURVE",
"40 197 CURVE SMOOTH",
"40 141 OFFCURVE",
"63 91 OFFCURVE",
"103 55 CURVE SMOOTH",
"144 19 OFFCURVE",
"202 -5 OFFCURVE",
"271 -5 CURVE SMOOTH",
"339 -5 OFFCURVE",
"397 19 OFFCURVE",
"437 55 CURVE SMOOTH"
);
},
{
closed = 1;
nodes = (
"401 601 OFFCURVE",
"419 570 OFFCURVE",
"419 526 CURVE SMOOTH",
"419 482 OFFCURVE",
"401 450 OFFCURVE",
"374 427 CURVE",
"346 406 OFFCURVE",
"310 396 OFFCURVE",
"271 396 CURVE SMOOTH",
"232 396 OFFCURVE",
"197 406 OFFCURVE",
"169 427 CURVE",
"142 450 OFFCURVE",
"124 482 OFFCURVE",
"124 526 CURVE SMOOTH",
"124 570 OFFCURVE",
"142 601 OFFCURVE",
"169 624 CURVE SMOOTH",
"197 647 OFFCURVE",
"232 655 OFFCURVE",
"271 655 CURVE SMOOTH",
"310 655 OFFCURVE",
"346 647 OFFCURVE",
"374 624 CURVE SMOOTH"
);
},
{
closed = 1;
nodes = (
"430 285 OFFCURVE",
"450 246 OFFCURVE",
"450 197 CURVE SMOOTH",
"450 145 OFFCURVE",
"430 108 OFFCURVE",
"395 83 CURVE",
"362 56 OFFCURVE",
"318 45 OFFCURVE",
"271 45 CURVE SMOOTH",
"224 45 OFFCURVE",
"180 56 OFFCURVE",
"147 83 CURVE SMOOTH",
"115 108 OFFCURVE",
"93 145 OFFCURVE",
"93 197 CURVE SMOOTH",
"93 246 OFFCURVE",
"115 282 OFFCURVE",
"147 309 CURVE",
"180 334 OFFCURVE",
"224 346 OFFCURVE",
"271 346 CURVE SMOOTH",
"318 346 OFFCURVE",
"362 334 OFFCURVE",
"395 310 CURVE SMOOTH"
);
}
);
width = 543;
}
);
note = eight;
unicode = 0038;
},
{
glyphname = fraction;
lastChange = "2018-04-12 08:35:17 +0000";
layers = (
{
layerId = "3C8330F3-4770-4812-9C95-859F387513C1";
paths = (
{
closed = 1;
nodes = (
"447 700 LINE",
"40 -6 LINE",
"89 -6 LINE",
"496 700 LINE"
);
}
);
width = 536;
}
);
note = fraction;
unicode = 2044;
},
{
glyphname = asterisk;
lastChange = "2018-04-12 21:52:32 +0000";
layers = (
{
layerId = "3C8330F3-4770-4812-9C95-859F387513C1";
paths = (
{
closed = 1;
nodes = (
"231 547 LINE",
"346 612 LINE",
"329 640 LINE",
"217 575 LINE",
"217 706 LINE",
"183 706 LINE",
"183 573 LINE",
"64 634 LINE",
"50 603 LINE",
"166 545 LINE",
"52 482 LINE",
"70 455 LINE",
"183 521 LINE",
"183 389 LINE",
"217 389 LINE",
"217 521 LINE",
"335 461 LINE",
"349 491 LINE"
);
}
);
width = 399;
}
);
note = asterisk;
unicode = 002A;
},
{
glyphname = backslash;
lastChange = "2018-04-12 21:52:32 +0000";
layers = (
{
layerId = "3C8330F3-4770-4812-9C95-859F387513C1";
paths = (
{
closed = 1;
nodes = (
"80 700 LINE",
"35 700 LINE",
"408 -104 LINE",
"452 -104 LINE"
);
}
);
width = 487;
}
);
note = backslash;
unicode = 005C;
},
{
glyphname = comma;
lastChange = "2018-04-12 21:52:32 +0000";
layers = (
{
layerId = "3C8330F3-4770-4812-9C95-859F387513C1";
paths = (
{
closed = 1;
nodes = (
"20 13 OFFCURVE",
"40 -8 OFFCURVE",
"69 -7 CURVE",
"61 -47 OFFCURVE",
"49 -80 OFFCURVE",
"43 -91 CURVE",
"63 -100 LINE",
"71 -81 OFFCURVE",
"111 9 OFFCURVE",
"112 35 CURVE",
"115 60 OFFCURVE",
"93 86 OFFCURVE",
"68 86 CURVE SMOOTH",
"40 86 OFFCURVE",
"20 64 OFFCURVE",
"20 39 CURVE SMOOTH"
);
}
);
width = 152;
}
);
note = comma;
unicode = 002C;
},
{
glyphname = exclam;
lastChange = "2018-04-12 21:52:32 +0000";
layers = (
{
components = (
{
name = period;
transform = "{1, 0, 0, 1, 40, -3}";
}
);
layerId = "3C8330F3-4770-4812-9C95-859F387513C1";
paths = (
{
closed = 1;
nodes = (
"67 700 LINE",
"71 179 LINE",
"117 179 LINE",
"119 700 LINE"
);
}
);
width = 219;
}
);
note = exclam;
unicode = 0021;
},
{
glyphname = numbersign;
lastChange = "2018-04-09 03:35:39 +0000";
layers = (
{
layerId = "3C8330F3-4770-4812-9C95-859F387513C1";
paths = (
{
closed = 1;
nodes = (
"588 500 LINE",
"640 697 LINE",
"591 697 LINE",
"537 501 LINE",
"317 501 LINE",
"368 697 LINE",
"322 697 LINE",
"269 501 LINE",
"102 502 LINE",
"102 456 LINE",
"256 456 LINE",
"200 246 LINE",
"40 246 LINE",
"40 201 LINE",
"187 201 LINE",
"134 1 LINE",
"181 1 LINE",
"235 201 LINE",
"454 200 LINE",
"398 1 LINE",
"453 1 LINE",
"507 200 LINE",
"677 200 LINE",
"677 244 LINE",
"519 244 LINE",
"575 455 LINE",
"738 455 LINE",
"739 500 LINE"
);
},
{
closed = 1;
nodes = (
"467 245 LINE",
"247 245 LINE",
"304 456 LINE",
"525 455 LINE"
);
}
);
width = 779;
}
);
note = numbersign;
unicode = 0023;
},
{
glyphname = period;
lastChange = "2018-04-12 21:52:32 +0000";
layers = (
{
layerId = "3C8330F3-4770-4812-9C95-859F387513C1";
paths = (
{
closed = 1;
nodes = (
"76 -4 OFFCURVE",
"96 16 OFFCURVE",
"96 39 CURVE SMOOTH",
"96 62 OFFCURVE",
"76 82 OFFCURVE",
"53 82 CURVE SMOOTH",
"30 82 OFFCURVE",
"10 62 OFFCURVE",
"10 39 CURVE SMOOTH",
"10 16 OFFCURVE",
"30 -4 OFFCURVE",
"53 -4 CURVE SMOOTH"
);
}
);
width = 146;
}
);
note = period;
unicode = 002E;
},
{
glyphname = question;
lastChange = "2018-04-12 21:52:32 +0000";
layers = (
{
components = (
{
name = period;
transform = "{1, 0, 0, 1, 203, -3}";
}
);
layerId = "3C8330F3-4770-4812-9C95-859F387513C1";
paths = (
{
closed = 1;
nodes = (
"491 372 OFFCURVE",
"520 433 OFFCURVE",
"520 502 CURVE SMOOTH",
"520 560 OFFCURVE",
"498 606 OFFCURVE",
"458 645 CURVE SMOOTH",
"417 684 OFFCURVE",
"362 705 OFFCURVE",
"291 708 CURVE SMOOTH",
"147 713 OFFCURVE",
"50 654 OFFCURVE",
"50 543 CURVE",
"102 543 LINE",
"102 645 OFFCURVE",
"223 687 OFFCURVE",
"354 651 CURVE SMOOTH",
"424 632 OFFCURVE",
"473 579 OFFCURVE",
"473 502 CURVE SMOOTH",
"473 413 OFFCURVE",
"430 361 OFFCURVE",
"347 332 CURVE",
"256 293 OFFCURVE",
"236 292 OFFCURVE",
"233 214 CURVE",
"233 181 LINE",
"283 181 LINE",
"283 218 LINE",
"286 267 OFFCURVE",
"313 266 OFFCURVE",
"376 294 CURVE SMOOTH",
"401 305 OFFCURVE",
"421 314 OFFCURVE",
"444 333 CURVE SMOOTH"
);
}
);
width = 570;
}
);
note = question;
unicode = 003F;
},
{
glyphname = quotedbl;
lastChange = "2018-04-10 09:46:00 +0000";
layers = (
{
layerId = "3C8330F3-4770-4812-9C95-859F387513C1";
paths = (
{
closed = 1;
nodes = (
"209 700 LINE",
"215 463 LINE",
"254 463 LINE",
"261 700 LINE"
);
},
{
closed = 1;
nodes = (
"40 700 LINE",
"46 463 LINE",
"86 463 LINE",
"92 700 LINE"
);
}
);
width = 301;
}
);
note = quotedbl;
unicode = 0022;
},
{
glyphname = quotesingle;
lastChange = "2018-04-10 09:46:30 +0000";
layers = (
{
layerId = "3C8330F3-4770-4812-9C95-859F387513C1";
paths = (
{
closed = 1;
nodes = (
"40 700 LINE",
"46 463 LINE",
"86 463 LINE",
"92 700 LINE"
);
}
);
width = 132;
}
);
note = quotesingle;
unicode = 0027;
},
{
glyphname = semicolon;
lastChange = "2018-04-12 21:52:32 +0000";
layers = (
{
components = (
{
name = period;
transform = "{1, 0, 0, 1, 22, 377}";
}
);
layerId = "3C8330F3-4770-4812-9C95-859F387513C1";
paths = (
{
closed = 1;
nodes = (
"30 13 OFFCURVE",
"50 -8 OFFCURVE",
"77 -7 CURVE",
"69 -45 OFFCURVE",
"57 -76 OFFCURVE",
"52 -87 CURVE",
"71 -95 LINE",
"79 -77 OFFCURVE",
"117 9 OFFCURVE",
"118 34 CURVE",
"121 58 OFFCURVE",
"100 83 OFFCURVE",
"76 83 CURVE SMOOTH",
"50 83 OFFCURVE",
"30 62 OFFCURVE",
"30 37 CURVE SMOOTH"
);
}
);
width = 168;
}
);
note = semicolon;
unicode = 003B;
},
{
glyphname = slash;
lastChange = "2018-04-12 21:52:32 +0000";
layers = (
{
layerId = "3C8330F3-4770-4812-9C95-859F387513C1";
paths = (
{
closed = 1;
nodes = (
"407 700 LINE",
"35 -104 LINE",
"79 -104 LINE",
"452 700 LINE"
);
}
);
width = 487;
}
);
note = slash;
unicode = 002F;
},
{
glyphname = underscore;
lastChange = "2018-04-10 09:33:05 +0000";
layers = (
{
layerId = "3C8330F3-4770-4812-9C95-859F387513C1";
paths = (
{
closed = 1;
nodes = (
"545 -78 LINE",
"50 -78 LINE",
"50 -118 LINE",
"545 -118 LINE"
);
}
);
width = 595;
}
);
note = underscore;
unicode = 005F;
},
{
glyphname = braceleft;
lastChange = "2018-04-12 21:52:32 +0000";
layers = (
{
layerId = "3C8330F3-4770-4812-9C95-859F387513C1";
paths = (
{
closed = 1;
nodes = (
"83 268 OFFCURVE",
"101 258 OFFCURVE",
"108 221 CURVE SMOOTH",
"111 204 OFFCURVE",
"111 179 OFFCURVE",
"111 144 CURVE SMOOTH",
"110 8 LINE SMOOTH",
"110 -71 OFFCURVE",
"142 -144 OFFCURVE",
"211 -144 CURVE SMOOTH",
"276 -144 LINE",
"276 -115 LINE",
"211 -115 LINE SMOOTH",
"188 -115 OFFCURVE",
"176 -100 OFFCURVE",
"169 -84 CURVE SMOOTH",
"139 -15 OFFCURVE",
"176 115 OFFCURVE",
"164 195 CURVE SMOOTH",
"159 229 OFFCURVE",
"146 273 OFFCURVE",
"114 284 CURVE",
"146 295 OFFCURVE",
"159 339 OFFCURVE",
"164 373 CURVE SMOOTH",
"176 453 OFFCURVE",
"139 583 OFFCURVE",
"169 652 CURVE SMOOTH",
"176 668 OFFCURVE",
"188 683 OFFCURVE",
"211 683 CURVE SMOOTH",
"276 683 LINE",
"276 712 LINE",
"211 712 LINE SMOOTH",
"142 712 OFFCURVE",
"110 639 OFFCURVE",
"110 560 CURVE SMOOTH",
"111 424 LINE SMOOTH",
"111 389 OFFCURVE",
"111 364 OFFCURVE",
"108 347 CURVE SMOOTH",
"101 310 OFFCURVE",
"83 300 OFFCURVE",
"50 299 CURVE",
"50 269 LINE"
);
}
);
width = 316;
}
);
note = braceleft;
unicode = 007B;
},
{
glyphname = bracketleft;
lastChange = "2018-04-09 03:35:39 +0000";
layers = (
{
layerId = "3C8330F3-4770-4812-9C95-859F387513C1";
paths = (
{
closed = 1;
nodes = (
"237 -104 LINE",
"98 -104 LINE",
"98 653 LINE",
"237 653 LINE",
"237 698 LINE",
"50 698 LINE",
"50 -147 LINE",
"237 -147 LINE"
);
}
);
width = 277;
}
);
note = bracketleft;
unicode = 005B;
},
{
glyphname = bracketright;
lastChange = "2018-04-09 03:35:39 +0000";
layers = (
{
layerId = "3C8330F3-4770-4812-9C95-859F387513C1";
paths = (
{
closed = 1;
nodes = (
"227 698 LINE",
"40 698 LINE",
"40 653 LINE",
"179 653 LINE",
"179 -104 LINE",
"40 -104 LINE",
"40 -147 LINE",
"227 -147 LINE"
);
}
);
width = 277;
}
);
note = bracketright;
unicode = 005D;
},
{
glyphname = parenleft;
lastChange = "2018-04-12 21:52:32 +0000";
layers = (
{
layerId = "3C8330F3-4770-4812-9C95-859F387513C1";
paths = (
{
closed = 1;
nodes = (
"153 6 OFFCURVE",
"100 148 OFFCURVE",
"100 315 CURVE SMOOTH",
"100 476 OFFCURVE",
"156 613 OFFCURVE",
"241 705 CURVE",
"190 705 LINE",
"103 613 OFFCURVE",
"50 490 OFFCURVE",
"50 315 CURVE SMOOTH",
"50 157 OFFCURVE",
"95 16 OFFCURVE",
"193 -90 CURVE",
"244 -90 LINE"
);
}
);
width = 284;
}
);
note = parenleft;
unicode = 0028;
},
{
glyphname = emdash;
lastChange = "2018-04-12 21:52:32 +0000";
layers = (
{
layerId = "3C8330F3-4770-4812-9C95-859F387513C1";
paths = (
{
closed = 1;
nodes = (
"926 325 LINE",
"20 325 LINE",
"20 275 LINE",
"926 275 LINE"
);
}
);
width = 946;
}
);
note = emdash;
unicode = 2014;
},
{
glyphname = endash;
lastChange = "2018-04-10 09:33:22 +0000";
layers = (
{
layerId = "3C8330F3-4770-4812-9C95-859F387513C1";
paths = (
{
closed = 1;
nodes = (
"545 325 LINE",
"50 325 LINE",
"50 275 LINE",
"545 275 LINE"
);
}
);
width = 595;
}
);
note = endash;
unicode = 2013;
},
{
glyphname = hyphen;
lastChange = "2018-04-10 09:33:28 +0000";
layers = (
{
layerId = "3C8330F3-4770-4812-9C95-859F387513C1";
paths = (
{
closed = 1;
nodes = (
"400 325 LINE",
"50 325 LINE",
"50 275 LINE",
"400 275 LINE"
);
}
);
width = 450;
}
);
note = hyphen;
unicode = 002D;
},
{
glyphname = guillemotleft;
lastChange = "2018-04-12 21:52:32 +0000";
layers = (
{
layerId = "3C8330F3-4770-4812-9C95-859F387513C1";
paths = (
{
closed = 1;
nodes = (
"435 128 LINE",
"273 269 LINE",
"435 412 LINE",
"435 470 LINE",
"205 272 LINE",
"435 71 LINE"
);
},
{
closed = 1;
nodes = (
"259 128 LINE",
"98 269 LINE",
"259 413 LINE",
"259 470 LINE",
"30 272 LINE",
"259 71 LINE"
);
}
);
width = 475;
}
);
note = guillemotleft;
unicode = 00AB;
},
{
glyphname = guilsinglleft;
lastChange = "2018-04-12 21:52:32 +0000";
layers = (
{
layerId = "3C8330F3-4770-4812-9C95-859F387513C1";
paths = (
{
closed = 1;
nodes = (
"260 128 LINE",
"98 269 LINE",
"260 412 LINE",
"260 470 LINE",
"30 272 LINE",
"260 71 LINE"
);
}
);
width = 300;
}
);
note = guilsinglleft;
unicode = 2039;
},
{
glyphname = quotesinglbase;
lastChange = "2018-04-12 21:52:32 +0000";
layers = (
{
layerId = "3C8330F3-4770-4812-9C95-859F387513C1";
paths = (
{
closed = 1;
nodes = (
"20 13 OFFCURVE",
"40 -8 OFFCURVE",
"69 -7 CURVE",
"61 -47 OFFCURVE",
"49 -80 OFFCURVE",
"43 -91 CURVE",
"63 -100 LINE",
"71 -81 OFFCURVE",
"111 9 OFFCURVE",
"112 35 CURVE",
"115 60 OFFCURVE",
"93 86 OFFCURVE",
"68 86 CURVE SMOOTH",
"40 86 OFFCURVE",
"20 64 OFFCURVE",
"20 39 CURVE SMOOTH"
);
}
);
width = 132;
}
);
note = quotesinglbase;
unicode = 201A;
},
{
glyphname = Euro;
lastChange = "2018-04-12 21:52:32 +0000";
layers = (
{
layerId = "3C8330F3-4770-4812-9C95-859F387513C1";
paths = (
{
closed = 1;
nodes = (
"497 705 LINE",
"435 705 LINE",
"338 705 OFFCURVE",
"252 665 OFFCURVE",
"188 601 CURVE SMOOTH",
"124 537 OFFCURVE",
"87 447 OFFCURVE",
"87 350 CURVE SMOOTH",
"87 250 OFFCURVE",
"124 163 OFFCURVE",
"188 99 CURVE SMOOTH",
"252 35 OFFCURVE",
"338 -5 OFFCURVE",
"435 -5 CURVE",
"497 -5 LINE",
"497 44 LINE",
"435 44 LINE",
"352 44 OFFCURVE",
"281 79 OFFCURVE",
"226 135 CURVE SMOOTH",
"172 190 OFFCURVE",
"140 266 OFFCURVE",
"140 350 CURVE SMOOTH",
"140 433 OFFCURVE",
"173 509 OFFCURVE",
"226 565 CURVE SMOOTH",
"280 622 OFFCURVE",
"352 656 OFFCURVE",
"435 656 CURVE",
"497 656 LINE"
);
},
{
closed = 1;
nodes = (
"40 414 LINE",
"418 414 LINE",
"418 449 LINE",
"40 449 LINE"
);
},
{
closed = 1;
nodes = (
"40 252 LINE",
"418 252 LINE",
"418 287 LINE",
"40 287 LINE"
);
}
);
width = 547;
}
);
note = Euro;
unicode = 20AC;
},
{
glyphname = cent;
lastChange = "2018-04-10 22:04:59 +0000";
layers = (
{
layerId = "3C8330F3-4770-4812-9C95-859F387513C1";
paths = (
{
closed = 1;
nodes = (
"379 95 OFFCURVE",
"425 113 OFFCURVE",
"457 144 CURVE",
"429 180 LINE",
"413 169 OFFCURVE",
"391 158 OFFCURVE",
"363 151 CURVE SMOOTH",
"328 142 OFFCURVE",
"287 138 OFFCURVE",
"238 147 CURVE SMOOTH",
"142 163 OFFCURVE",
"94 237 OFFCURVE",
"94 348 CURVE SMOOTH",
"94 456 OFFCURVE",
"142 530 OFFCURVE",
"238 547 CURVE SMOOTH",
"262 551 OFFCURVE",
"285 553 OFFCURVE",
"306 552 CURVE SMOOTH",
"348 551 OFFCURVE",
"394 540 OFFCURVE",
"429 513 CURVE",
"457 550 LINE",
"424 579 OFFCURVE",
"379 600 OFFCURVE",
"296 604 CURVE",
"296 672 LINE",
"261 672 LINE",
"261 603 LINE",
"220 597 LINE SMOOTH",
"109 578 OFFCURVE",
"40 491 OFFCURVE",
"40 348 CURVE SMOOTH",
"40 203 OFFCURVE",
"109 116 OFFCURVE",
"220 97 CURVE SMOOTH",
"261 90 LINE",
"261 30 LINE",
"296 30 LINE",
"296 90 LINE"
);
}
);
width = 497;
}
);
note = cent;
unicode = 00A2;
},
{
glyphname = currency;
lastChange = "2018-04-10 22:06:20 +0000";
layers = (
{
layerId = "3C8330F3-4770-4812-9C95-859F387513C1";
paths = (
{
closed = 1;
nodes = (
"473 192 LINE",
"510 245 OFFCURVE",
"525 290 OFFCURVE",
"525 337 CURVE SMOOTH",
"525 384 OFFCURVE",
"511 428 OFFCURVE",
"472 484 CURVE",
"568 579 LINE",
"545 602 LINE",
"449 506 LINE",
"394 545 OFFCURVE",
"349 559 OFFCURVE",
"304 559 CURVE SMOOTH",
"259 559 OFFCURVE",
"214 545 OFFCURVE",
"159 506 CURVE",
"64 603 LINE",
"40 579 LINE",
"136 484 LINE",
"97 428 OFFCURVE",
"83 384 OFFCURVE",
"83 337 CURVE SMOOTH",
"83 290 OFFCURVE",
"98 245 OFFCURVE",
"135 192 CURVE",
"40 98 LINE",
"64 74 LINE",
"158 169 LINE",
"213 130 OFFCURVE",
"257 116 OFFCURVE",
"304 116 CURVE SMOOTH",
"351 116 OFFCURVE",
"397 131 OFFCURVE",
"449 170 CURVE",
"545 75 LINE",
"568 98 LINE"
);
},
{
closed = 1;
nodes = (
"463 431 OFFCURVE",
"481 385 OFFCURVE",
"481 337 CURVE SMOOTH",
"481 287 OFFCURVE",
"463 244 OFFCURVE",
"430 212 CURVE SMOOTH",
"398 179 OFFCURVE",
"354 160 OFFCURVE",
"304 160 CURVE SMOOTH",
"254 160 OFFCURVE",
"211 179 OFFCURVE",
"179 212 CURVE SMOOTH",
"146 244 OFFCURVE",
"127 287 OFFCURVE",
"127 337 CURVE SMOOTH",
"127 387 OFFCURVE",
"146 431 OFFCURVE",
"179 463 CURVE SMOOTH",
"211 496 OFFCURVE",
"256 514 OFFCURVE",
"304 514 CURVE SMOOTH",
"352 514 OFFCURVE",
"398 496 OFFCURVE",
"430 463 CURVE SMOOTH"
);
}
);
width = 608;
}
);
note = currency;
unicode = 00A4;
},
{
glyphname = dollar;
lastChange = "2018-04-10 22:06:51 +0000";
layers = (
{
components = (
{
name = S;
}
);
layerId = "3C8330F3-4770-4812-9C95-859F387513C1";
paths = (
{
closed = 1;
nodes = (
"252 -46 LINE",
"298 -46 LINE",
"298 745 LINE",
"252 745 LINE"
);
}
);
width = 549;
}
);
note = dollar;
unicode = 0024;
},
{
glyphname = sterling;
lastChange = "2018-04-12 21:52:32 +0000";
layers = (
{
layerId = "3C8330F3-4770-4812-9C95-859F387513C1";
paths = (
{
closed = 1;
nodes = (
"357 656 OFFCURVE",
"393 652 OFFCURVE",
"432 648 CURVE",
"432 694 LINE",
"386 700 OFFCURVE",
"343 701 OFFCURVE",
"303 697 CURVE SMOOTH",
"255 692 OFFCURVE",
"221 679 OFFCURVE",
"198 664 CURVE SMOOTH",
"143 626 OFFCURVE",
"115 564 OFFCURVE",
"120 501 CURVE SMOOTH",
"123 474 OFFCURVE",
"130 449 OFFCURVE",
"139 421 CURVE SMOOTH",
"144 407 OFFCURVE",
"148 389 OFFCURVE",
"152 367 CURVE",
"63 367 LINE",
"63 332 LINE",
"154 332 LINE",
"143 237 OFFCURVE",
"113 151 OFFCURVE",
"40 52 CURVE",
"40 -2 LINE",
"427 -2 LINE",
"427 49 LINE",
"95 49 LINE",
"151 126 OFFCURVE",
"191 234 OFFCURVE",
"200 332 CURVE",
"346 332 LINE",
"346 367 LINE",
"201 367 LINE",
"193 406 OFFCURVE",
"172 469 OFFCURVE",
"170 503 CURVE",
"166 547 OFFCURVE",
"177 595 OFFCURVE",
"226 626 CURVE SMOOTH",
"249 641 OFFCURVE",
"283 649 OFFCURVE",
"322 653 CURVE SMOOTH"
);
}
);
width = 477;
}
);
note = sterling;
unicode = 00A3;
},
{
glyphname = yen;
lastChange = "2018-04-10 22:11:08 +0000";
layers = (
{
components = (
{
name = Y;
}
);
layerId = "3C8330F3-4770-4812-9C95-859F387513C1";
paths = (
{
closed = 1;
nodes = (
"72 72 LINE",
"545 72 LINE",
"545 117 LINE",
"72 117 LINE"
);
},
{
closed = 1;
nodes = (
"71 189 LINE",
"545 189 LINE",
"545 236 LINE",
"71 236 LINE"
);
}
);
width = 622;
}
);
note = yen;
unicode = 00A5;
},
{
glyphname = plus;
lastChange = "2018-04-12 21:52:32 +0000";
layers = (
{
layerId = "3C8330F3-4770-4812-9C95-859F387513C1";
paths = (
{
closed = 1;
nodes = (
"520 318 LINE",
"50 318 LINE",
"50 268 LINE",
"520 268 LINE"
);
},
{
closed = 1;
nodes = (
"260 528 LINE",
"260 58 LINE",
"310 58 LINE",
"310 528 LINE"
);
}
);
width = 570;
}
);
note = plus;
unicode = 002B;
},
{
glyphname = minus;
lastChange = "2018-04-10 22:11:40 +0000";
layers = (
{
layerId = "3C8330F3-4770-4812-9C95-859F387513C1";
paths = (
{
closed = 1;
nodes = (
"520 318 LINE",
"50 318 LINE",
"50 268 LINE",
"520 268 LINE"
);
}
);
width = 570;
}
);
note = minus;
unicode = 2212;
},
{
glyphname = multiply;
lastChange = "2018-04-12 21:52:32 +0000";
layers = (
{
layerId = "3C8330F3-4770-4812-9C95-859F387513C1";
paths = (
{
closed = 1;
nodes = (
"418 168 LINE",
"86 500 LINE",
"50 464 LINE",
"382 132 LINE"
);
},
{
closed = 1;
nodes = (
"86 132 LINE",
"418 464 LINE",
"382 500 LINE",
"50 168 LINE"
);
}
);
width = 468;
}
);
note = multiply;
unicode = 00D7;
},
{
glyphname = divide;
lastChange = "2018-04-12 21:52:32 +0000";
layers = (
{
components = (
{
name = period;
transform = "{1, 0, 0, 1, 230, 99}";
},
{
name = period;
transform = "{1, 0, 0, 1, 230, 410}";
}
);
layerId = "3C8330F3-4770-4812-9C95-859F387513C1";
paths = (
{
closed = 1;
nodes = (
"520 318 LINE",
"50 318 LINE",
"50 268 LINE",
"520 268 LINE"
);
}
);
width = 570;
}
);
note = divide;
unicode = 00F7;
},
{
glyphname = equal;
lastChange = "2018-04-12 23:04:47 +0000";
layers = (
{
layerId = "3C8330F3-4770-4812-9C95-859F387513C1";
paths = (
{
closed = 1;
nodes = (
"520 408 LINE",
"50 408 LINE",
"50 358 LINE",
"520 358 LINE"
);
},
{
closed = 1;
nodes = (
"520 241 LINE",
"50 241 LINE",
"50 191 LINE",
"520 191 LINE"
);
}
);
width = 570;
}
);
note = equal;
unicode = 003D;
},
{
glyphname = notequal;
lastChange = "2018-04-12 21:52:32 +0000";
layers = (
{
layerId = "3C8330F3-4770-4812-9C95-859F387513C1";
paths = (
{
closed = 1;
nodes = (
"490 438 LINE",
"50 438 LINE",
"50 388 LINE",
"490 388 LINE"
);
},
{
closed = 1;
nodes = (
"490 241 LINE",
"50 241 LINE",
"50 191 LINE",
"490 191 LINE"
);
},
{
closed = 1;
nodes = (
"195 107 LINE",
"386 506 LINE",
"333 506 LINE",
"141 107 LINE"
);
}
);
width = 540;
}
);
note = notequal;
unicode = 2260;
},
{
glyphname = greater;
lastChange = "2018-04-10 22:16:47 +0000";
layers = (
{
layerId = "3C8330F3-4770-4812-9C95-859F387513C1";
paths = (
{
closed = 1;
nodes = (
"467 296 LINE",
"40 510 LINE",
"40 455 LINE",
"415 269 LINE",
"40 82 LINE",
"40 29 LINE",
"467 242 LINE"
);
}
);
width = 507;
}
);
note = greater;
unicode = 003E;
},
{
glyphname = greaterequal;
lastChange = "2018-04-12 21:52:32 +0000";
layers = (
{
layerId = "3C8330F3-4770-4812-9C95-859F387513C1";
paths = (
{
closed = 1;
nodes = (
"466 339 LINE",
"40 476 LINE",
"40 424 LINE",
"420 306 LINE",
"40 192 LINE",
"40 141 LINE",
"466 272 LINE"
);
},
{
closed = 1;
nodes = (
"466 50 LINE",
"40 50 LINE",
"40 0 LINE",
"466 0 LINE"
);
}
);
width = 506;
}
);
note = greaterequal;
unicode = 2265;
},
{
glyphname = plusminus;
lastChange = "2018-04-12 21:52:32 +0000";
layers = (
{
layerId = "3C8330F3-4770-4812-9C95-859F387513C1";
paths = (
{
closed = 1;
nodes = (
"520 349 LINE",
"310 349 LINE",
"310 440 LINE",
"260 440 LINE",
"260 349 LINE",
"50 349 LINE",
"50 299 LINE",
"260 299 LINE",
"260 207 LINE",
"310 207 LINE",
"310 299 LINE",
"520 299 LINE"
);
},
{
closed = 1;
nodes = (
"520 88 LINE",
"50 88 LINE",
"50 38 LINE",
"520 38 LINE"
);
}
);
width = 570;
}
);
note = plusminus;
unicode = 00B1;
},
{
glyphname = approxequal;
lastChange = "2018-04-10 22:21:30 +0000";
layers = (
{
layerId = "3C8330F3-4770-4812-9C95-859F387513C1";
paths = (
{
closed = 1;
nodes = (
"425 329 OFFCURVE",
"458 343 OFFCURVE",
"482 367 CURVE SMOOTH",
"506 391 OFFCURVE",
"522 421 OFFCURVE",
"526 452 CURVE",
"480 452 LINE",
"471 399 OFFCURVE",
"429 368 OFFCURVE",
"374 376 CURVE SMOOTH",
"340 381 OFFCURVE",
"256 437 OFFCURVE",
"216 442 CURVE",
"176 449 OFFCURVE",
"134 438 OFFCURVE",
"99 412 CURVE SMOOTH",
"67 388 OFFCURVE",
"46 354 OFFCURVE",
"40 318 CURVE",
"86 318 LINE",
"92 342 OFFCURVE",
"107 363 OFFCURVE",
"129 379 CURVE SMOOTH",
"152 395 OFFCURVE",
"182 402 OFFCURVE",
"209 399 CURVE SMOOTH",
"241 396 OFFCURVE",
"299 357 OFFCURVE",
"323 348 CURVE",
"352 335 OFFCURVE",
"375 329 OFFCURVE",
"394 329 CURVE SMOOTH"
);
},
{
closed = 1;
nodes = (
"432 125 OFFCURVE",
"468 130 OFFCURVE",
"499 163 CURVE SMOOTH",
"523 189 OFFCURVE",
"536 217 OFFCURVE",
"541 247 CURVE",
"494 247 LINE",
"477 156 OFFCURVE",
"404 152 OFFCURVE",
"303 205 CURVE SMOOTH",
"272 222 OFFCURVE",
"244 234 OFFCURVE",
"222 238 CURVE SMOOTH",
"179 246 OFFCURVE",
"140 236 OFFCURVE",
"108 211 CURVE SMOOTH",
"80 189 OFFCURVE",
"61 154 OFFCURVE",
"56 112 CURVE",
"103 112 LINE",
"107 137 OFFCURVE",
"116 159 OFFCURVE",
"136 175 CURVE SMOOTH",
"157 192 OFFCURVE",
"187 198 OFFCURVE",
"215 194 CURVE",
"246 187 OFFCURVE",
"269 173 OFFCURVE",
"293 161 CURVE",
"323 143 OFFCURVE",
"369 125 OFFCURVE",
"401 125 CURVE SMOOTH"
);
}
);
width = 581;
}
);
note = approxequal;
unicode = 2248;
},
{
glyphname = asciitilde;
lastChange = "2018-04-10 22:23:21 +0000";
layers = (
{
layerId = "3C8330F3-4770-4812-9C95-859F387513C1";
paths = (
{
closed = 1;
nodes = (
"508 202 OFFCURVE",
"565 286 OFFCURVE",
"565 354 CURVE",
"510 354 LINE",
"502 284 OFFCURVE",
"463 248 OFFCURVE",
"399 260 CURVE",
"374 267 OFFCURVE",
"344 286 OFFCURVE",
"313 303 CURVE SMOOTH",
"278 322 OFFCURVE",
"247 338 OFFCURVE",
"223 343 CURVE",
"113 359 OFFCURVE",
"46 282 OFFCURVE",
"40 187 CURVE",
"95 187 LINE",
"99 271 OFFCURVE",
"160 315 OFFCURVE",
"240 283 CURVE SMOOTH",
"256 277 OFFCURVE",
"276 262 OFFCURVE",
"302 246 CURVE SMOOTH",
"315 238 OFFCURVE",
"328 231 OFFCURVE",
"342 224 CURVE SMOOTH",
"368 211 OFFCURVE",
"394 202 OFFCURVE",
"420 202 CURVE SMOOTH"
);
}
);
width = 605;
}
);
note = asciitilde;
unicode = 007E;
},
{
glyphname = logicalnot;
lastChange = "2018-04-10 22:24:04 +0000";
layers = (
{
layerId = "3C8330F3-4770-4812-9C95-859F387513C1";
paths = (
{
closed = 1;
nodes = (
"468 324 LINE",
"40 324 LINE",
"40 275 LINE",
"424 275 LINE",
"424 85 LINE",
"468 85 LINE"
);
}
);
width = 518;
}
);
note = logicalnot;
unicode = 00AC;
},
{
glyphname = emptyset;
lastChange = "2018-04-10 22:53:22 +0000";
layers = (
{
layerId = "3C8330F3-4770-4812-9C95-859F387513C1";
paths = (
{
closed = 1;
nodes = (
"421 41 OFFCURVE",
"497 73 OFFCURVE",
"554 129 CURVE SMOOTH",
"610 186 OFFCURVE",
"642 262 OFFCURVE",
"642 342 CURVE SMOOTH",
"642 413 OFFCURVE",
"618 479 OFFCURVE",
"567 542 CURVE",
"626 602 LINE",
"602 626 LINE",
"541 567 LINE",
"480 618 OFFCURVE",
"413 644 OFFCURVE",
"341 644 CURVE SMOOTH",
"261 644 OFFCURVE",
"185 612 OFFCURVE",
"128 555 CURVE SMOOTH",
"72 498 OFFCURVE",
"40 422 OFFCURVE",
"40 342 CURVE SMOOTH",
"40 272 OFFCURVE",
"65 206 OFFCURVE",
"116 142 CURVE",
"57 82 LINE",
"81 58 LINE",
"141 117 LINE",
"205 66 OFFCURVE",
"271 41 OFFCURVE",
"341 41 CURVE SMOOTH"
);
},
{
closed = 1;
nodes = (
"400 608 OFFCURVE",
"458 587 OFFCURVE",
"517 543 CURVE",
"142 168 LINE",
"98 225 OFFCURVE",
"75 283 OFFCURVE",
"75 343 CURVE SMOOTH",
"75 414 OFFCURVE",
"103 482 OFFCURVE",
"153 531 CURVE SMOOTH",
"202 581 OFFCURVE",
"270 608 OFFCURVE",
"341 608 CURVE SMOOTH"
);
},
{
closed = 1;
nodes = (
"586 459 OFFCURVE",
"607 406 OFFCURVE",
"607 343 CURVE SMOOTH",
"607 272 OFFCURVE",
"579 206 OFFCURVE",
"529 155 CURVE SMOOTH",
"480 104 OFFCURVE",
"413 77 OFFCURVE",
"341 77 CURVE SMOOTH",
"282 77 OFFCURVE",
"227 97 OFFCURVE",
"166 142 CURVE",
"541 517 LINE"
);
}
);
width = 682;
}
);
note = emptyset;
unicode = 2205;
},
{
glyphname = infinity;
lastChange = "2018-04-10 22:28:50 +0000";
layers = (
{
layerId = "3C8330F3-4770-4812-9C95-859F387513C1";
paths = (
{
closed = 1;
nodes = (
"821 96 OFFCURVE",
"821 195 CURVE SMOOTH",
"821 294 OFFCURVE",
"749 391 OFFCURVE",
"633 391 CURVE SMOOTH",
"566 391 OFFCURVE",
"466 354 OFFCURVE",
"435 271 CURVE",
"405 354 OFFCURVE",
"305 391 OFFCURVE",
"238 391 CURVE SMOOTH",
"125 391 OFFCURVE",
"50 295 OFFCURVE",
"50 195 CURVE SMOOTH",
"50 99 OFFCURVE",
"125 0 OFFCURVE",
"238 0 CURVE SMOOTH",
"305 0 OFFCURVE",
"404 39 OFFCURVE",
"435 118 CURVE",
"466 39 OFFCURVE",
"566 0 OFFCURVE",
"633 0 CURVE SMOOTH",
"749 0 OFFCURVE"
);
},
{
closed = 1;
nodes = (
"763 277 OFFCURVE",
"779 238 OFFCURVE",
"779 195 CURVE SMOOTH",
"779 152 OFFCURVE",
"763 114 OFFCURVE",
"736 86 CURVE SMOOTH",
"709 58 OFFCURVE",
"673 41 OFFCURVE",
"633 41 CURVE SMOOTH",
"585 41 OFFCURVE",
"541 62 OFFCURVE",
"508 91 CURVE SMOOTH",
"476 120 OFFCURVE",
"457 158 OFFCURVE",
"457 195 CURVE SMOOTH",
"457 234 OFFCURVE",
"476 271 OFFCURVE",
"508 300 CURVE SMOOTH",
"541 329 OFFCURVE",
"585 349 OFFCURVE",
"633 349 CURVE SMOOTH",
"673 349 OFFCURVE",
"709 332 OFFCURVE",
"736 305 CURVE SMOOTH"
);
},
{
closed = 1;
nodes = (
"395 271 OFFCURVE",
"414 234 OFFCURVE",
"414 195 CURVE SMOOTH",
"414 158 OFFCURVE",
"395 122 OFFCURVE",
"364 91 CURVE SMOOTH",
"332 60 OFFCURVE",
"287 41 OFFCURVE",
"238 41 CURVE SMOOTH",
"198 41 OFFCURVE",
"162 58 OFFCURVE",
"135 86 CURVE SMOOTH",
"108 114 OFFCURVE",
"92 152 OFFCURVE",
"92 195 CURVE SMOOTH",
"92 238 OFFCURVE",
"108 277 OFFCURVE",
"135 305 CURVE SMOOTH",
"162 332 OFFCURVE",
"198 349 OFFCURVE",
"238 349 CURVE SMOOTH",
"287 349 OFFCURVE",
"332 329 OFFCURVE",
"364 300 CURVE SMOOTH"
);
}
);
width = 871;
}
);
note = infinity;
unicode = 221E;
},
{
glyphname = integral;
lastChange = "2018-04-10 22:29:42 +0000";
layers = (
{
layerId = "3C8330F3-4770-4812-9C95-859F387513C1";
paths = (
{
closed = 1;
nodes = (
"517 707 LINE",
"447 707 LINE SMOOTH",
"399 707 OFFCURVE",
"367 681 OFFCURVE",
"339 617 CURVE SMOOTH",
"310 552 OFFCURVE",
"289 450 OFFCURVE",
"262 301 CURVE SMOOTH",
"243 197 OFFCURVE",
"227 100 OFFCURVE",
"206 25 CURVE SMOOTH",
"183 -55 OFFCURVE",
"163 -113 OFFCURVE",
"103 -113 CURVE SMOOTH",
"40 -113 LINE",
"40 -158 LINE",
"110 -158 LINE SMOOTH",
"172 -158 OFFCURVE",
"205 -113 OFFCURVE",
"231 -49 CURVE SMOOTH",
"243 -20 OFFCURVE",
"251 11 OFFCURVE",
"258 36 CURVE SMOOTH",
"271 85 OFFCURVE",
"283 142 OFFCURVE",
"294 205 CURVE SMOOTH",
"299 237 OFFCURVE",
"305 268 OFFCURVE",
"312 303 CURVE SMOOTH",
"335 427 OFFCURVE",
"350 511 OFFCURVE",
"367 568 CURVE SMOOTH",
"383 620 OFFCURVE",
"405 662 OFFCURVE",
"454 662 CURVE SMOOTH",
"517 662 LINE"
);
}
);
width = 557;
}
);
note = integral;
unicode = 222B;
},
{
glyphname = product;
lastChange = "2018-04-10 22:55:51 +0000";
layers = (
{
layerId = "3C8330F3-4770-4812-9C95-859F387513C1";
paths = (
{
closed = 1;
nodes = (
"535 700 LINE",
"40 700 LINE",
"40 652 LINE",
"153 652 LINE",
"153 -101 LINE",
"199 -101 LINE",
"199 652 LINE",
"388 652 LINE",
"388 -101 LINE",
"434 -101 LINE",
"434 652 LINE",
"535 652 LINE"
);
}
);
width = 575;
}
);
note = product;
unicode = 220F;
},
{
glyphname = summation;
lastChange = "2018-04-10 22:30:33 +0000";
layers = (
{
layerId = "3C8330F3-4770-4812-9C95-859F387513C1";
paths = (
{
closed = 1;
nodes = (
"516 -58 LINE",
"96 -58 LINE",
"347 297 LINE",
"96 652 LINE",
"516 652 LINE",
"516 700 LINE",
"45 700 LINE",
"45 646 LINE",
"290 297 LINE",
"45 -52 LINE",
"45 -106 LINE",
"516 -106 LINE"
);
}
);
width = 561;
}
);
note = summation;
unicode = 2211;
},
{
glyphname = radical;
lastChange = "2018-04-12 21:52:32 +0000";
layers = (
{
layerId = "3C8330F3-4770-4812-9C95-859F387513C1";
paths = (
{
closed = 1;
nodes = (
"543 700 LINE",
"329 700 LINE",
"163 -97 LINE",
"85 152 LINE",
"32 152 LINE",
"128 -151 LINE",
"203 -151 LINE",
"370 656 LINE",
"543 656 LINE"
);
}
);
width = 588;
}
);
note = radical;
unicode = 221A;
},
{
glyphname = partialdiff;
lastChange = "2018-04-10 22:32:57 +0000";
layers = (
{
layerId = "3C8330F3-4770-4812-9C95-859F387513C1";
paths = (
{
closed = 1;
nodes = (
"244 700 LINE",
"333 584 OFFCURVE",
"390 489 OFFCURVE",
"438 381 CURVE",
"398 428 OFFCURVE",
"342 445 OFFCURVE",
"304 449 CURVE SMOOTH",
"240 456 OFFCURVE",
"178 440 OFFCURVE",
"130 404 CURVE SMOOTH",
"83 369 OFFCURVE",
"50 315 OFFCURVE",
"42 252 CURVE SMOOTH",
"34 188 OFFCURVE",
"53 130 OFFCURVE",
"91 84 CURVE SMOOTH",
"130 37 OFFCURVE",
"185 5 OFFCURVE",
"250 -3 CURVE SMOOTH",
"314 -11 OFFCURVE",
"375 8 OFFCURVE",
"422 43 CURVE SMOOTH",
"470 78 OFFCURVE",
"503 131 OFFCURVE",
"511 194 CURVE SMOOTH",
"525 305 OFFCURVE",
"489 429 OFFCURVE",
"372 605 CURVE SMOOTH",
"350 638 OFFCURVE",
"321 676 OFFCURVE",
"304 700 CURVE"
);
},
{
closed = 1;
nodes = (
"198 390 OFFCURVE",
"245 403 OFFCURVE",
"296 397 CURVE SMOOTH",
"346 391 OFFCURVE",
"388 367 OFFCURVE",
"417 331 CURVE",
"448 296 OFFCURVE",
"462 249 OFFCURVE",
"456 200 CURVE SMOOTH",
"450 152 OFFCURVE",
"425 110 OFFCURVE",
"386 84 CURVE",
"350 56 OFFCURVE",
"303 41 OFFCURVE",
"253 47 CURVE SMOOTH",
"202 53 OFFCURVE",
"160 79 OFFCURVE",
"131 115 CURVE SMOOTH",
"103 150 OFFCURVE",
"88 197 OFFCURVE",
"94 245 CURVE SMOOTH",
"100 293 OFFCURVE",
"126 334 OFFCURVE",
"162 362 CURVE SMOOTH"
);
}
);
width = 554;
}
);
note = partialdiff;
unicode = 2202;
},
{
glyphname = percent;
lastChange = "2018-04-12 21:52:32 +0000";
layers = (
{
layerId = "3C8330F3-4770-4812-9C95-859F387513C1";
paths = (
{
closed = 1;
nodes = (
"297 -1 LINE",
"605 701 LINE",
"548 701 LINE",
"240 -1 LINE"
);
},
{
closed = 1;
nodes = (
"227 426 OFFCURVE",
"260 441 OFFCURVE",
"285 466 CURVE SMOOTH",
"311 492 OFFCURVE",
"324 524 OFFCURVE",
"324 563 CURVE SMOOTH",
"324 602 OFFCURVE",
"311 635 OFFCURVE",
"285 661 CURVE SMOOTH",
"260 686 OFFCURVE",
"227 701 OFFCURVE",
"188 701 CURVE SMOOTH",
"149 701 OFFCURVE",
"115 686 OFFCURVE",
"90 661 CURVE SMOOTH",
"65 636 OFFCURVE",
"50 602 OFFCURVE",
"50 563 CURVE SMOOTH",
"50 524 OFFCURVE",
"66 491 OFFCURVE",
"91 466 CURVE SMOOTH",
"115 441 OFFCURVE",
"149 426 OFFCURVE",
"188 426 CURVE SMOOTH"
);
},
{
closed = 1;
nodes = (
"162 472 OFFCURVE",
"140 482 OFFCURVE",
"123 499 CURVE SMOOTH",
"106 516 OFFCURVE",
"96 538 OFFCURVE",
"96 563 CURVE SMOOTH",
"96 616 OFFCURVE",
"135 655 OFFCURVE",
"188 655 CURVE SMOOTH",
"213 655 OFFCURVE",
"236 645 OFFCURVE",
"252 628 CURVE SMOOTH",
"268 611 OFFCURVE",
"278 589 OFFCURVE",
"278 563 CURVE SMOOTH",
"278 538 OFFCURVE",
"268 516 OFFCURVE",
"252 499 CURVE SMOOTH",
"236 482 OFFCURVE",
"213 472 OFFCURVE",
"188 472 CURVE SMOOTH"
);
},
{
closed = 1;
nodes = (
"727 -4 OFFCURVE",
"760 11 OFFCURVE",
"785 36 CURVE SMOOTH",
"811 62 OFFCURVE",
"824 94 OFFCURVE",
"824 133 CURVE SMOOTH",
"824 172 OFFCURVE",
"811 205 OFFCURVE",
"785 231 CURVE SMOOTH",
"760 256 OFFCURVE",
"727 271 OFFCURVE",
"688 271 CURVE SMOOTH",
"649 271 OFFCURVE",
"615 256 OFFCURVE",
"590 231 CURVE SMOOTH",
"565 206 OFFCURVE",
"550 172 OFFCURVE",
"550 133 CURVE SMOOTH",
"550 94 OFFCURVE",
"566 61 OFFCURVE",
"591 36 CURVE SMOOTH",
"616 11 OFFCURVE",
"649 -4 OFFCURVE",
"688 -4 CURVE SMOOTH"
);
},
{
closed = 1;
nodes = (
"662 41 OFFCURVE",
"639 52 OFFCURVE",
"623 69 CURVE SMOOTH",
"607 86 OFFCURVE",
"595 108 OFFCURVE",
"595 133 CURVE SMOOTH",
"595 187 OFFCURVE",
"634 226 OFFCURVE",
"688 226 CURVE SMOOTH",
"713 226 OFFCURVE",
"737 215 OFFCURVE",
"752 198 CURVE SMOOTH",
"767 181 OFFCURVE",
"779 159 OFFCURVE",
"779 133 CURVE SMOOTH",
"779 108 OFFCURVE",
"768 85 OFFCURVE",
"752 69 CURVE SMOOTH",
"736 53 OFFCURVE",
"713 41 OFFCURVE",
"688 41 CURVE SMOOTH"
);
}
);
width = 874;
}
);
note = percent;
unicode = 0025;
},
{
glyphname = perthousand;
lastChange = "2018-04-12 21:52:32 +0000";
layers = (
{
layerId = "3C8330F3-4770-4812-9C95-859F387513C1";
paths = (
{
closed = 1;
nodes = (
"297 -1 LINE",
"605 701 LINE",
"548 701 LINE",
"240 -1 LINE"
);
},
{
closed = 1;
nodes = (
"227 426 OFFCURVE",
"260 441 OFFCURVE",
"285 466 CURVE SMOOTH",
"311 492 OFFCURVE",
"324 524 OFFCURVE",
"324 563 CURVE SMOOTH",
"324 602 OFFCURVE",
"311 635 OFFCURVE",
"285 661 CURVE SMOOTH",
"260 686 OFFCURVE",
"227 701 OFFCURVE",
"188 701 CURVE SMOOTH",
"149 701 OFFCURVE",
"115 686 OFFCURVE",
"90 661 CURVE SMOOTH",
"65 636 OFFCURVE",
"50 602 OFFCURVE",
"50 563 CURVE SMOOTH",
"50 524 OFFCURVE",
"66 491 OFFCURVE",
"91 466 CURVE SMOOTH",
"115 441 OFFCURVE",
"149 426 OFFCURVE",
"188 426 CURVE SMOOTH"
);
},
{
closed = 1;
nodes = (
"162 472 OFFCURVE",
"140 482 OFFCURVE",
"123 499 CURVE SMOOTH",
"106 516 OFFCURVE",
"96 538 OFFCURVE",
"96 563 CURVE SMOOTH",
"96 616 OFFCURVE",
"135 655 OFFCURVE",
"188 655 CURVE SMOOTH",
"213 655 OFFCURVE",
"236 645 OFFCURVE",
"252 628 CURVE SMOOTH",
"268 611 OFFCURVE",
"278 589 OFFCURVE",
"278 563 CURVE SMOOTH",
"278 538 OFFCURVE",
"268 516 OFFCURVE",
"252 499 CURVE SMOOTH",
"236 482 OFFCURVE",
"213 472 OFFCURVE",
"188 472 CURVE SMOOTH"
);
},
{
closed = 1;
nodes = (
"727 -4 OFFCURVE",
"760 11 OFFCURVE",
"785 36 CURVE SMOOTH",
"811 62 OFFCURVE",
"824 94 OFFCURVE",
"824 133 CURVE SMOOTH",
"824 172 OFFCURVE",
"811 205 OFFCURVE",
"785 231 CURVE SMOOTH",
"760 256 OFFCURVE",
"727 271 OFFCURVE",
"688 271 CURVE SMOOTH",
"649 271 OFFCURVE",
"615 256 OFFCURVE",
"590 231 CURVE SMOOTH",
"565 206 OFFCURVE",
"550 172 OFFCURVE",
"550 133 CURVE SMOOTH",
"550 94 OFFCURVE",
"566 61 OFFCURVE",
"591 36 CURVE SMOOTH",
"616 11 OFFCURVE",
"649 -4 OFFCURVE",
"688 -4 CURVE SMOOTH"
);
},
{
closed = 1;
nodes = (
"662 41 OFFCURVE",
"639 52 OFFCURVE",
"623 69 CURVE SMOOTH",
"607 86 OFFCURVE",
"595 108 OFFCURVE",
"595 133 CURVE SMOOTH",
"595 187 OFFCURVE",
"634 226 OFFCURVE",
"688 226 CURVE SMOOTH",
"713 226 OFFCURVE",
"737 215 OFFCURVE",
"752 198 CURVE SMOOTH",
"767 181 OFFCURVE",
"779 159 OFFCURVE",
"779 133 CURVE SMOOTH",
"779 108 OFFCURVE",
"768 85 OFFCURVE",
"752 69 CURVE SMOOTH",
"736 53 OFFCURVE",
"713 41 OFFCURVE",
"688 41 CURVE SMOOTH"
);
},
{
closed = 1;
nodes = (
"1080 -4 OFFCURVE",
"1113 11 OFFCURVE",
"1138 36 CURVE SMOOTH",
"1164 62 OFFCURVE",
"1177 94 OFFCURVE",
"1177 133 CURVE SMOOTH",
"1177 172 OFFCURVE",
"1164 205 OFFCURVE",
"1138 231 CURVE SMOOTH",
"1113 256 OFFCURVE",
"1080 271 OFFCURVE",
"1041 271 CURVE SMOOTH",
"1002 271 OFFCURVE",
"968 256 OFFCURVE",
"943 231 CURVE SMOOTH",
"918 206 OFFCURVE",
"903 172 OFFCURVE",
"903 133 CURVE SMOOTH",
"903 94 OFFCURVE",
"919 61 OFFCURVE",
"944 36 CURVE SMOOTH",
"969 11 OFFCURVE",
"1002 -4 OFFCURVE",
"1041 -4 CURVE SMOOTH"
);
},
{
closed = 1;
nodes = (
"1015 41 OFFCURVE",
"992 52 OFFCURVE",
"976 69 CURVE SMOOTH",
"960 86 OFFCURVE",
"948 108 OFFCURVE",
"948 133 CURVE SMOOTH",
"948 187 OFFCURVE",
"987 226 OFFCURVE",
"1041 226 CURVE SMOOTH",
"1066 226 OFFCURVE",
"1090 215 OFFCURVE",
"1105 198 CURVE SMOOTH",
"1120 181 OFFCURVE",
"1132 159 OFFCURVE",
"1132 133 CURVE SMOOTH",
"1132 108 OFFCURVE",
"1121 85 OFFCURVE",
"1105 69 CURVE SMOOTH",
"1089 53 OFFCURVE",
"1066 41 OFFCURVE",
"1041 41 CURVE SMOOTH"
);
}
);
width = 1227;
}
);
note = perthousand;
unicode = 2030;
},
{
glyphname = lozenge;
lastChange = "2018-04-12 21:52:32 +0000";
layers = (
{
layerId = "3C8330F3-4770-4812-9C95-859F387513C1";
paths = (
{
closed = 1;
nodes = (
"300 660 LINE",
"232 660 LINE",
"50 330 LINE",
"232 0 LINE",
"300 0 LINE",
"483 330 LINE"
);
},
{
closed = 1;
nodes = (
"267 41 LINE",
"103 330 LINE",
"267 620 LINE",
"430 330 LINE"
);
}
);
width = 533;
}
);
note = lozenge;
unicode = 25CA;
},
{
glyphname = at;
lastChange = "2018-04-12 21:52:32 +0000";
layers = (
{
layerId = "3C8330F3-4770-4812-9C95-859F387513C1";
paths = (
{
closed = 1;
nodes = (
"779 2 OFFCURVE",
"832 108 OFFCURVE",
"827 291 CURVE SMOOTH",
"824 411 OFFCURVE",
"774 515 OFFCURVE",
"684 588 CURVE SMOOTH",
"603 655 OFFCURVE",
"501 683 OFFCURVE",
"395 668 CURVE SMOOTH",
"292 652 OFFCURVE",
"200 600 OFFCURVE",
"130 516 CURVE SMOOTH",
"62 434 OFFCURVE",
"31 330 OFFCURVE",
"42 224 CURVE SMOOTH",
"53 117 OFFCURVE",
"103 24 OFFCURVE",
"184 -40 CURVE SMOOTH",
"273 -111 OFFCURVE",
"348 -117 OFFCURVE",
"467 -111 CURVE",
"467 -57 LINE",
"359 -70 OFFCURVE",
"281 -51 OFFCURVE",
"214 2 CURVE SMOOTH",
"144 57 OFFCURVE",
"101 138 OFFCURVE",
"93 229 CURVE SMOOTH",
"85 321 OFFCURVE",
"113 411 OFFCURVE",
"171 485 CURVE SMOOTH",
"230 558 OFFCURVE",
"311 604 OFFCURVE",
"402 616 CURVE SMOOTH",
"497 627 OFFCURVE",
"583 603 OFFCURVE",
"653 547 CURVE SMOOTH",
"729 484 OFFCURVE",
"773 393 OFFCURVE",
"776 292 CURVE SMOOTH",
"779 174 OFFCURVE",
"756 92 OFFCURVE",
"712 59 CURVE SMOOTH",
"657 18 OFFCURVE",
"593 36 OFFCURVE",
"593 95 CURVE SMOOTH",
"593 357 LINE SMOOTH",
"593 407 OFFCURVE",
"567 446 OFFCURVE",
"522 464 CURVE SMOOTH",
"478 481 OFFCURVE",
"420 479 OFFCURVE",
"367 458 CURVE SMOOTH",
"327 441 OFFCURVE",
"296 418 OFFCURVE",
"282 405 CURVE",
"313 370 LINE",
"329 382 OFFCURVE",
"356 399 OFFCURVE",
"389 411 CURVE SMOOTH",
"422 424 OFFCURVE",
"459 429 OFFCURVE",
"488 422 CURVE SMOOTH",
"524 414 OFFCURVE",
"542 391 OFFCURVE",
"542 353 CURVE SMOOTH",
"542 313 LINE",
"454 313 OFFCURVE",
"374 307 OFFCURVE",
"322 269 CURVE SMOOTH",
"287 242 OFFCURVE",
"271 213 OFFCURVE",
"271 174 CURVE SMOOTH",
"271 145 OFFCURVE",
"281 118 OFFCURVE",
"298 96 CURVE SMOOTH",
"316 74 OFFCURVE",
"344 64 OFFCURVE",
"381 64 CURVE SMOOTH",
"421 64 OFFCURVE",
"473 73 OFFCURVE",
"542 124 CURVE",
"542 95 LINE SMOOTH",
"542 20 OFFCURVE",
"594 -22 OFFCURVE",
"673 -12 CURVE SMOOTH"
);
},
{
closed = 1;
nodes = (
"510 152 OFFCURVE",
"473 134 OFFCURVE",
"440 124 CURVE SMOOTH",
"417 117 OFFCURVE",
"397 112 OFFCURVE",
"378 113 CURVE",
"358 113 OFFCURVE",
"342 120 OFFCURVE",
"331 134 CURVE",
"324 141 OFFCURVE",
"321 156 OFFCURVE",
"321 174 CURVE SMOOTH",
"321 239 OFFCURVE",
"390 267 OFFCURVE",
"543 268 CURVE",
"543 175 LINE"
);
}
);
width = 867;
}
);
note = at;
unicode = 0040;
},
{
glyphname = ampersand;
lastChange = "2018-04-17 07:36:52 +0000";
layers = (
{
layerId = "3C8330F3-4770-4812-9C95-859F387513C1";
paths = (
{
closed = 1;
nodes = (
"515 132 LINE",
"563 204 OFFCURVE",
"566 264 OFFCURVE",
"566 358 CURVE",
"516 358 LINE",
"516 258 OFFCURVE",
"512 224 OFFCURVE",
"483 173 CURVE",
"267 416 LINE",
"200 494 LINE",
"134 567 OFFCURVE",
"185 655 OFFCURVE",
"276 662 CURVE",
"343 664 OFFCURVE",
"381 636 OFFCURVE",
"403 581 CURVE",
"447 599 LINE",
"417 675 OFFCURVE",
"366 712 OFFCURVE",
"277 712 CURVE SMOOTH",
"136 712 OFFCURVE",
"68 567 OFFCURVE",
"144 477 CURVE",
"198 412 LINE",
"86 354 OFFCURVE",
"23 283 OFFCURVE",
"44 155 CURVE SMOOTH",
"52 105 OFFCURVE",
"81 61 OFFCURVE",
"120 35 CURVE SMOOTH",
"169 3 OFFCURVE",
"217 -12 OFFCURVE",
"272 -8 CURVE SMOOTH",
"343 -3 OFFCURVE",
"421 32 OFFCURVE",
"476 87 CURVE",
"482 93 LINE",
"570 0 LINE",
"636 0 LINE"
);
},
{
closed = 1;
nodes = (
"233 375 LINE",
"449 129 LINE",
"343 21 OFFCURVE",
"197 12 OFFCURVE",
"123 108 CURVE SMOOTH",
"92 148 OFFCURVE",
"82 192 OFFCURVE",
"94 241 CURVE SMOOTH",
"106 286 OFFCURVE",
"157 325 OFFCURVE",
"226 370 CURVE"
);
}
);
width = 666;
}
);
note = ampersand;
unicode = 0026;
},
{
glyphname = paragraph;
lastChange = "2018-04-12 21:52:32 +0000";
layers = (
{
layerId = "3C8330F3-4770-4812-9C95-859F387513C1";
paths = (
{
closed = 1;
nodes = (
"486 698 LINE",
"437 698 LINE",
"437 -58 LINE",
"486 -58 LINE"
);
},
{
closed = 1;
nodes = (
"357 698 LINE",
"186 698 LINE SMOOTH",
"147 698 OFFCURVE",
"110 683 OFFCURVE",
"83 656 CURVE SMOOTH",
"56 629 OFFCURVE",
"40 594 OFFCURVE",
"40 557 CURVE SMOOTH",
"40 518 OFFCURVE",
"56 484 OFFCURVE",
"83 459 CURVE SMOOTH",
"110 434 OFFCURVE",
"146 418 OFFCURVE",
"186 418 CURVE SMOOTH",
"201 418 OFFCURVE",
"215 420 OFFCURVE",
"234 427 CURVE SMOOTH",
"253 434 OFFCURVE",
"276 447 OFFCURVE",
"308 467 CURVE",
"308 -58 LINE",
"357 -58 LINE"
);
}
);
width = 526;
}
);
note = paragraph;
unicode = 00B6;
},
{
glyphname = section;
lastChange = "2018-04-12 21:52:32 +0000";
layers = (
{
layerId = "3C8330F3-4770-4812-9C95-859F387513C1";
paths = (
{
closed = 1;
nodes = (
"353 272 OFFCURVE",
"375 307 OFFCURVE",
"375 352 CURVE SMOOTH",
"375 394 OFFCURVE",
"343 436 OFFCURVE",
"295 458 CURVE",
"272 467 OFFCURVE",
"249 473 OFFCURVE",
"220 478 CURVE SMOOTH",
"191 482 OFFCURVE",
"161 493 OFFCURVE",
"138 506 CURVE SMOOTH",
"111 522 OFFCURVE",
"96 542 OFFCURVE",
"96 563 CURVE SMOOTH",
"96 589 OFFCURVE",
"109 616 OFFCURVE",
"132 635 CURVE SMOOTH",
"153 653 OFFCURVE",
"183 657 OFFCURVE",
"216 657 CURVE SMOOTH",
"248 657 OFFCURVE",
"287 649 OFFCURVE",
"323 624 CURVE",
"355 655 LINE",
"313 684 OFFCURVE",
"254 703 OFFCURVE",
"208 703 CURVE SMOOTH",
"162 703 OFFCURVE",
"120 687 OFFCURVE",
"87 657 CURVE SMOOTH",
"60 632 OFFCURVE",
"45 598 OFFCURVE",
"45 564 CURVE SMOOTH",
"45 548 OFFCURVE",
"49 532 OFFCURVE",
"57 515 CURVE SMOOTH",
"66 498 OFFCURVE",
"80 482 OFFCURVE",
"111 457 CURVE",
"54 427 OFFCURVE",
"40 391 OFFCURVE",
"40 346 CURVE SMOOTH",
"40 304 OFFCURVE",
"72 262 OFFCURVE",
"120 240 CURVE",
"143 231 OFFCURVE",
"166 225 OFFCURVE",
"195 220 CURVE SMOOTH",
"222 216 OFFCURVE",
"253 206 OFFCURVE",
"278 192 CURVE SMOOTH",
"304 178 OFFCURVE",
"322 157 OFFCURVE",
"322 135 CURVE SMOOTH",
"322 108 OFFCURVE",
"309 82 OFFCURVE",
"286 64 CURVE SMOOTH",
"263 45 OFFCURVE",
"229 41 OFFCURVE",
"199 41 CURVE SMOOTH",
"167 41 OFFCURVE",
"132 53 OFFCURVE",
"96 78 CURVE",
"60 43 LINE",
"102 14 OFFCURVE",
"161 -5 OFFCURVE",
"207 -5 CURVE SMOOTH",
"253 -5 OFFCURVE",
"295 11 OFFCURVE",
"328 41 CURVE SMOOTH",
"355 66 OFFCURVE",
"370 100 OFFCURVE",
"370 134 CURVE SMOOTH",
"370 150 OFFCURVE",
"366 166 OFFCURVE",
"358 183 CURVE SMOOTH",
"349 200 OFFCURVE",
"335 216 OFFCURVE",
"304 241 CURVE"
);
},
{
closed = 1;
nodes = (
"349 314 OFFCURVE",
"309 272 OFFCURVE",
"235 265 CURVE SMOOTH",
"201 262 OFFCURVE",
"156 270 OFFCURVE",
"128 286 CURVE",
"96 303 OFFCURVE",
"84 331 OFFCURVE",
"84 360 CURVE SMOOTH",
"84 405 OFFCURVE",
"136 438 OFFCURVE",
"183 438 CURVE SMOOTH",
"255 438 OFFCURVE",
"313 411 OFFCURVE",
"330 365 CURVE SMOOTH"
);
}
);
width = 415;
}
);
note = section;
unicode = 00A7;
},
{
glyphname = copyright;
lastChange = "2018-04-10 22:49:30 +0000";
layers = (
{
components = (
{
name = c;
transform = "{0.8306, 0, 0, 0.8306, 153, 132}";
}
);
layerId = "3C8330F3-4770-4812-9C95-859F387513C1";
paths = (
{
closed = 1;
nodes = (
"688 157 OFFCURVE",
"725 246 OFFCURVE",
"725 343 CURVE SMOOTH",
"725 440 OFFCURVE",
"688 530 OFFCURVE",
"625 597 CURVE SMOOTH",
"562 664 OFFCURVE",
"476 703 OFFCURVE",
"383 703 CURVE SMOOTH",
"287 703 OFFCURVE",
"205 661 OFFCURVE",
"141 596 CURVE SMOOTH",
"77 531 OFFCURVE",
"40 440 OFFCURVE",
"40 343 CURVE SMOOTH",
"40 246 OFFCURVE",
"78 157 OFFCURVE",
"141 93 CURVE SMOOTH",
"204 29 OFFCURVE",
"287 -10 OFFCURVE",
"383 -10 CURVE SMOOTH",
"479 -10 OFFCURVE",
"562 29 OFFCURVE",
"625 93 CURVE SMOOTH"
);
},
{
closed = 1;
nodes = (
"641 505 OFFCURVE",
"672 427 OFFCURVE",
"672 343 CURVE SMOOTH",
"672 258 OFFCURVE",
"640 182 OFFCURVE",
"588 126 CURVE SMOOTH",
"536 69 OFFCURVE",
"463 35 OFFCURVE",
"383 35 CURVE SMOOTH",
"302 35 OFFCURVE",
"229 70 OFFCURVE",
"178 126 CURVE SMOOTH",
"126 182 OFFCURVE",
"93 258 OFFCURVE",
"93 343 CURVE SMOOTH",
"93 427 OFFCURVE",
"124 505 OFFCURVE",
"177 564 CURVE SMOOTH",
"229 621 OFFCURVE",
"302 658 OFFCURVE",
"383 658 CURVE SMOOTH",
"466 658 OFFCURVE",
"536 621 OFFCURVE",
"588 564 CURVE SMOOTH"
);
}
);
width = 765;
}
);
note = copyright;
unicode = 00A9;
},
{
glyphname = registered;
lastChange = "2018-04-10 22:52:00 +0000";
layers = (
{
layerId = "3C8330F3-4770-4812-9C95-859F387513C1";
paths = (
{
closed = 1;
nodes = (
"273 322 OFFCURVE",
"320 344 OFFCURVE",
"353 378 CURVE SMOOTH",
"385 412 OFFCURVE",
"406 459 OFFCURVE",
"406 511 CURVE SMOOTH",
"406 563 OFFCURVE",
"385 611 OFFCURVE",
"353 645 CURVE SMOOTH",
"320 679 OFFCURVE",
"273 700 OFFCURVE",
"224 700 CURVE SMOOTH",
"173 700 OFFCURVE",
"127 679 OFFCURVE",
"94 645 CURVE SMOOTH",
"61 611 OFFCURVE",
"40 563 OFFCURVE",
"40 511 CURVE SMOOTH",
"40 459 OFFCURVE",
"61 412 OFFCURVE",
"94 378 CURVE SMOOTH",
"127 344 OFFCURVE",
"173 322 OFFCURVE",
"224 322 CURVE SMOOTH"
);
},
{
closed = 1;
nodes = (
"263 662 OFFCURVE",
"300 645 OFFCURVE",
"326 618 CURVE SMOOTH",
"352 591 OFFCURVE",
"369 552 OFFCURVE",
"369 511 CURVE SMOOTH",
"369 470 OFFCURVE",
"352 432 OFFCURVE",
"326 405 CURVE SMOOTH",
"300 378 OFFCURVE",
"263 359 OFFCURVE",
"224 359 CURVE SMOOTH",
"184 359 OFFCURVE",
"147 378 OFFCURVE",
"121 405 CURVE SMOOTH",
"94 432 OFFCURVE",
"78 470 OFFCURVE",
"78 511 CURVE SMOOTH",
"78 552 OFFCURVE",
"94 590 OFFCURVE",
"121 618 CURVE SMOOTH",
"147 645 OFFCURVE",
"184 662 OFFCURVE",
"224 662 CURVE SMOOTH"
);
},
{
closed = 1;
nodes = (
"252.176 496.213 LINE",
"275.697 510.825 OFFCURVE",
"288 529.449 OFFCURVE",
"288 551 CURVE SMOOTH",
"288 582.601 OFFCURVE",
"263.963 609 OFFCURVE",
"235 609 CURVE SMOOTH",
"161 609 LINE",
"161 419 LINE",
"196 419 LINE",
"196 492 LINE",
"213.534 492 LINE",
"258.534 419 LINE",
"300.434 419 LINE"
);
},
{
closed = 1;
nodes = (
"243.641 574 OFFCURVE",
"252 563.041 OFFCURVE",
"252 551 CURVE SMOOTH",
"252 538.435 OFFCURVE",
"243.176 527 OFFCURVE",
"234 527 CURVE SMOOTH",
"196 527 LINE",
"196 574 LINE",
"235 574 LINE SMOOTH"
);
}
);
width = 446;
}
);
note = registered;
unicode = 00AE;
},
{
glyphname = trademark;
lastChange = "2018-04-10 22:51:49 +0000";
layers = (
{
layerId = "3C8330F3-4770-4812-9C95-859F387513C1";
paths = (
{
closed = 1;
nodes = (
"641 700 LINE",
"546 700 LINE",
"462 463 LINE",
"378 700 LINE",
"40 700 LINE",
"40 659 LINE",
"144 659 LINE",
"144 350 LINE",
"187 350 LINE",
"187 659 LINE",
"284 659 LINE",
"284 350 LINE",
"327 350 LINE",
"327 659 LINE",
"346 659 LINE",
"439 404 LINE",
"485 404 LINE",
"578 659 LINE",
"597 659 LINE",
"597 350 LINE",
"641 350 LINE"
);
}
);
width = 681;
}
);
note = trademark;
unicode = 2122;
},
{
glyphname = degree;
lastChange = "2018-04-10 22:52:11 +0000";
layers = (
{
layerId = "3C8330F3-4770-4812-9C95-859F387513C1";
paths = (
{
closed = 1;
nodes = (
"313 481 OFFCURVE",
"327 515 OFFCURVE",
"327 555 CURVE SMOOTH",
"327 595 OFFCURVE",
"313 630 OFFCURVE",
"286 657 CURVE SMOOTH",
"259 684 OFFCURVE",
"224 699 OFFCURVE",
"184 699 CURVE SMOOTH",
"144 699 OFFCURVE",
"108 683 OFFCURVE",
"82 657 CURVE SMOOTH",
"56 631 OFFCURVE",
"40 595 OFFCURVE",
"40 555 CURVE SMOOTH",
"40 515 OFFCURVE",
"57 480 OFFCURVE",
"83 454 CURVE SMOOTH",
"109 428 OFFCURVE",
"144 412 OFFCURVE",
"184 412 CURVE SMOOTH",
"224 412 OFFCURVE",
"259 427 OFFCURVE",
"286 454 CURVE SMOOTH"
);
},
{
closed = 1;
nodes = (
"211 655 OFFCURVE",
"236 645 OFFCURVE",
"254 627 CURVE SMOOTH",
"272 608 OFFCURVE",
"283 584 OFFCURVE",
"283 555 CURVE SMOOTH",
"283 499 OFFCURVE",
"240 456 OFFCURVE",
"184 456 CURVE SMOOTH",
"155 456 OFFCURVE",
"131 467 OFFCURVE",
"113 485 CURVE SMOOTH",
"94 503 OFFCURVE",
"84 528 OFFCURVE",
"84 555 CURVE SMOOTH",
"84 612 OFFCURVE",
"127 655 OFFCURVE",
"184 655 CURVE SMOOTH"
);
}
);
width = 367;
}
);
note = degree;
unicode = 00B0;
},
{
glyphname = bar;
lastChange = "2018-04-10 22:52:29 +0000";
layers = (
{
layerId = "3C8330F3-4770-4812-9C95-859F387513C1";
paths = (
{
closed = 1;
nodes = (
"100 698 LINE",
"50 698 LINE",
"50 -58 LINE",
"100 -58 LINE"
);
}
);
width = 150;
}
);
note = bar;
unicode = 007C;
},
{
glyphname = brokenbar;
lastChange = "2018-04-10 22:52:42 +0000";
layers = (
{
layerId = "3C8330F3-4770-4812-9C95-859F387513C1";
paths = (
{
closed = 1;
nodes = (
"100 700 LINE",
"50 700 LINE",
"50 399 LINE",
"100 399 LINE"
);
},
{
closed = 1;
nodes = (
"100 164 LINE",
"50 164 LINE",
"50 -137 LINE",
"100 -137 LINE"
);
}
);
width = 150;
}
);
note = brokenbar;
unicode = 00A6;
},
{
glyphname = dagger;
lastChange = "2018-04-10 22:53:39 +0000";
layers = (
{
layerId = "3C8330F3-4770-4812-9C95-859F387513C1";
paths = (
{
closed = 1;
nodes = (
"310 604 LINE",
"205 604 LINE",
"205 700 LINE",
"155 700 LINE",
"155 603 LINE",
"50 603 LINE",
"50 554 LINE",
"155 554 LINE",
"155 205 LINE",
"205 205 LINE",
"205 554 LINE",
"310 554 LINE"
);
}
);
width = 360;
}
);
note = dagger;
unicode = 2020;
},
{
glyphname = daggerdbl;
lastChange = "2018-04-10 22:54:00 +0000";
layers = (
{
layerId = "3C8330F3-4770-4812-9C95-859F387513C1";
paths = (
{
closed = 1;
nodes = (
"310 362 LINE",
"205 362 LINE",
"205 544 LINE",
"310 544 LINE",
"310 594 LINE",
"205 594 LINE",
"205 701 LINE",
"155 701 LINE",
"155 592 LINE",
"50 592 LINE",
"50 544 LINE",
"155 544 LINE",
"155 362 LINE",
"50 362 LINE",
"50 312 LINE",
"155 312 LINE",
"155 206 LINE",
"205 206 LINE",
"205 314 LINE",
"310 314 LINE"
);
}
);
width = 360;
}
);
note = daggerdbl;
unicode = 2021;
},
{
glyphname = asciicircum;
lastChange = "2018-04-12 21:52:32 +0000";
layers = (
{
layerId = "3C8330F3-4770-4812-9C95-859F387513C1";
paths = (
{
closed = 1;
nodes = (
"266 700 LINE",
"210 700 LINE",
"40 370 LINE",
"97 370 LINE",
"239 654 LINE",
"380 370 LINE",
"437 370 LINE"
);
}
);
width = 477;
}
);
note = asciicircum;
unicode = 005E;
},
{
glyphname = dieresiscomb;
lastChange = "2018-04-10 22:58:13 +0000";
layers = (
{
anchors = (
{
name = _top;
position = "{134, 540}";
},
{
name = top;
position = "{134, 698}";
}
);
layerId = "3C8330F3-4770-4812-9C95-859F387513C1";
paths = (
{
closed = 1;
nodes = (
"60 620 OFFCURVE",
"78 638 OFFCURVE",
"78 659 CURVE SMOOTH",
"78 680 OFFCURVE",
"60 698 OFFCURVE",
"39 698 CURVE SMOOTH",
"18 698 OFFCURVE",
"0 680 OFFCURVE",
"0 659 CURVE SMOOTH",
"0 638 OFFCURVE",
"18 620 OFFCURVE",
"39 620 CURVE SMOOTH"
);
},
{
closed = 1;
nodes = (
"249 620 OFFCURVE",
"267 638 OFFCURVE",
"267 659 CURVE SMOOTH",
"267 680 OFFCURVE",
"249 698 OFFCURVE",
"228 698 CURVE SMOOTH",
"207 698 OFFCURVE",
"189 680 OFFCURVE",
"189 659 CURVE SMOOTH",
"189 638 OFFCURVE",
"207 620 OFFCURVE",
"228 620 CURVE SMOOTH"
);
}
);
width = 267;
}
);
note = dieresiscomb;
unicode = 0308;
},
{
glyphname = dotaccentcomb;
lastChange = "2018-04-10 22:58:35 +0000";
layers = (
{
anchors = (
{
name = _top;
position = "{39, 540}";
},
{
name = top;
position = "{39, 698}";
}
);
layerId = "3C8330F3-4770-4812-9C95-859F387513C1";
paths = (
{
closed = 1;
nodes = (
"60 620 OFFCURVE",
"78 638 OFFCURVE",
"78 659 CURVE SMOOTH",
"78 680 OFFCURVE",
"60 698 OFFCURVE",
"39 698 CURVE SMOOTH",
"18 698 OFFCURVE",
"0 680 OFFCURVE",
"0 659 CURVE SMOOTH",
"0 638 OFFCURVE",
"18 620 OFFCURVE",
"39 620 CURVE SMOOTH"
);
}
);
width = 78;
}
);
note = dotaccentcomb;
unicode = 0307;
},
{
glyphname = gravecomb;
lastChange = "2018-04-10 23:47:50 +0000";
layers = (
{
anchors = (
{
name = _top;
position = "{57, 540}";
},
{
name = top;
position = "{57, 739}";
}
);
layerId = "3C8330F3-4770-4812-9C95-859F387513C1";
paths = (
{
closed = 1;
nodes = (
"55 739 LINE",
"0 739 LINE",
"40 606 LINE",
"82 606 LINE"
);
}
);
width = 82;
}
);
note = gravecomb;
unicode = 0300;
},
{
glyphname = acutecomb;
lastChange = "2018-04-10 23:48:01 +0000";
layers = (
{
anchors = (
{
name = _top;
position = "{27, 540}";
},
{
name = top;
position = "{27, 739}";
}
);
layerId = "3C8330F3-4770-4812-9C95-859F387513C1";
paths = (
{
closed = 1;
nodes = (
"27 739 LINE",
"0 606 LINE",
"42 606 LINE",
"82 739 LINE"
);
}
);
width = 82;
}
);
note = acutecomb;
unicode = 0301;
},
{
glyphname = hungarumlautcomb;
lastChange = "2018-04-10 23:02:06 +0000";
layers = (
{
anchors = (
{
name = _top;
position = "{94, 540}";
},
{
name = top;
position = "{94, 739}";
}
);
layerId = "3C8330F3-4770-4812-9C95-859F387513C1";
paths = (
{
closed = 1;
nodes = (
"27 739 LINE",
"0 606 LINE",
"42 606 LINE",
"82 739 LINE"
);
},
{
closed = 1;
nodes = (
"133 739 LINE",
"106 606 LINE",
"148 606 LINE",
"188 739 LINE"
);
}
);
width = 188;
}
);
note = hungarumlautcomb;
unicode = 030B;
},
{
glyphname = circumflexcomb;
lastChange = "2018-04-10 23:04:21 +0000";
layers = (
{
anchors = (
{
name = _top;
position = "{120, 520}";
},
{
name = top;
position = "{120, 700}";
}
);
layerId = "3C8330F3-4770-4812-9C95-859F387513C1";
paths = (
{
closed = 1;
nodes = (
"56 589 LINE",
"120 662 LINE",
"184 589 LINE",
"240 589 LINE",
"139 700 LINE",
"101 700 LINE",
"0 589 LINE"
);
}
);
width = 240;
}
);
note = circumflexcomb;
unicode = 0302;
},
{
glyphname = caroncomb;
lastChange = "2018-04-10 23:05:10 +0000";
layers = (
{
anchors = (
{
name = _top;
position = "{120, 520}";
},
{
name = top;
position = "{120, 700}";
}
);
layerId = "3C8330F3-4770-4812-9C95-859F387513C1";
paths = (
{
closed = 1;
nodes = (
"101 589 LINE",
"139 589 LINE",
"240 700 LINE",
"184 700 LINE",
"120 627 LINE",
"56 700 LINE",
"0 700 LINE"
);
}
);
width = 240;
}
);
note = caroncomb;
unicode = 030C;
},
{
glyphname = brevecomb;
lastChange = "2018-04-10 23:07:20 +0000";
layers = (
{
anchors = (
{
name = _top;
position = "{114, 520}";
},
{
name = top;
position = "{114, 700}";
}
);
layerId = "3C8330F3-4770-4812-9C95-859F387513C1";
paths = (
{
closed = 1;
nodes = (
"142 585 OFFCURVE",
"170 598 OFFCURVE",
"191 619 CURVE SMOOTH",
"211 639 OFFCURVE",
"224 668 OFFCURVE",
"227 700 CURVE",
"189 700 LINE",
"182 653 OFFCURVE",
"156 620 OFFCURVE",
"113 620 CURVE SMOOTH",
"70 620 OFFCURVE",
"45 655 OFFCURVE",
"38 700 CURVE",
"0 700 LINE",
"5 635 OFFCURVE",
"53 585 OFFCURVE",
"113 585 CURVE SMOOTH"
);
}
);
width = 227;
}
);
note = brevecomb;
unicode = 0306;
},
{
glyphname = ringcomb;
lastChange = "2018-04-11 00:16:06 +0000";
layers = (
{
anchors = (
{
name = _top;
position = "{73, 520}";
},
{
name = top;
position = "{73, 729}";
}
);
layerId = "3C8330F3-4770-4812-9C95-859F387513C1";
paths = (
{
closed = 1;
nodes = (
"113 583 OFFCURVE",
"146 616 OFFCURVE",
"146 656 CURVE SMOOTH",
"146 695 OFFCURVE",
"113 729 OFFCURVE",
"73 729 CURVE SMOOTH",
"34 729 OFFCURVE",
"0 695 OFFCURVE",
"0 656 CURVE SMOOTH",
"0 616 OFFCURVE",
"34 583 OFFCURVE",
"73 583 CURVE SMOOTH"
);
},
{
closed = 1;
nodes = (
"98 698 OFFCURVE",
"115 679 OFFCURVE",
"115 656 CURVE SMOOTH",
"115 632 OFFCURVE",
"96 614 OFFCURVE",
"73 614 CURVE SMOOTH",
"50 614 OFFCURVE",
"31 631 OFFCURVE",
"31 656 CURVE SMOOTH",
"31 679 OFFCURVE",
"50 698 OFFCURVE",
"73 698 CURVE SMOOTH"
);
}
);
width = 146;
}
);
note = ringcomb;
unicode = 030A;
},
{
glyphname = tildecomb;
lastChange = "2018-04-10 23:09:44 +0000";
layers = (
{
anchors = (
{
name = _top;
position = "{126, 520}";
},
{
name = top;
position = "{126, 702}";
}
);
layerId = "3C8330F3-4770-4812-9C95-859F387513C1";
paths = (
{
closed = 1;
nodes = (
"222 598 OFFCURVE",
"251 635 OFFCURVE",
"251 700 CURVE",
"214 700 LINE",
"215 667 OFFCURVE",
"202 636 OFFCURVE",
"178 636 CURVE SMOOTH",
"142 636 OFFCURVE",
"143 702 OFFCURVE",
"84 702 CURVE SMOOTH",
"40 702 OFFCURVE",
"0 663 OFFCURVE",
"0 599 CURVE",
"37 599 LINE",
"38 632 OFFCURVE",
"55 665 OFFCURVE",
"83 665 CURVE SMOOTH",
"114 663 OFFCURVE",
"130 598 OFFCURVE",
"178 598 CURVE SMOOTH"
);
}
);
width = 251;
}
);
note = tildecomb;
unicode = 0303;
},
{
glyphname = macroncomb;
lastChange = "2018-04-10 23:11:49 +0000";
layers = (
{
anchors = (
{
name = _top;
position = "{125, 560}";
},
{
name = top;
position = "{125, 700}";
}
);
layerId = "3C8330F3-4770-4812-9C95-859F387513C1";
paths = (
{
closed = 1;
nodes = (
"250 700 LINE",
"0 700 LINE",
"0 655 LINE",
"250 655 LINE"
);
}
);
width = 250;
}
);
note = macroncomb;
unicode = 0304;
},
{
glyphname = commaturnedabovecomb;
lastChange = "2018-04-12 21:52:32 +0000";
layers = (
{
anchors = (
{
name = _top;
position = "{56, 500}";
},
{
name = top;
position = "{56, 755}";
}
);
layerId = "3C8330F3-4770-4812-9C95-859F387513C1";
paths = (
{
closed = 1;
nodes = (
"95 660 OFFCURVE",
"78 678 OFFCURVE",
"54 677 CURVE",
"61 710 OFFCURVE",
"71 738 OFFCURVE",
"76 747 CURVE",
"59 755 LINE",
"52 739 OFFCURVE",
"19 663 OFFCURVE",
"18 642 CURVE",
"15 621 OFFCURVE",
"34 599 OFFCURVE",
"55 599 CURVE SMOOTH",
"78 599 OFFCURVE",
"95 617 OFFCURVE",
"95 638 CURVE SMOOTH"
);
}
);
width = 78;
}
);
note = commaturnedabovecomb;
unicode = 0312;
},
{
glyphname = commaaccentcomb;
lastChange = "2018-04-12 21:52:32 +0000";
layers = (
{
anchors = (
{
name = _bottom;
position = "{22, 0}";
},
{
name = bottom;
position = "{22, -198}";
}
);
layerId = "3C8330F3-4770-4812-9C95-859F387513C1";
paths = (
{
closed = 1;
nodes = (
"-17 -103 OFFCURVE",
"0 -121 OFFCURVE",
"24 -120 CURVE",
"17 -153 OFFCURVE",
"7 -181 OFFCURVE",
"2 -190 CURVE",
"19 -198 LINE",
"26 -182 OFFCURVE",
"59 -106 OFFCURVE",
"60 -85 CURVE",
"63 -64 OFFCURVE",
"44 -42 OFFCURVE",
"23 -42 CURVE SMOOTH",
"0 -42 OFFCURVE",
"-17 -60 OFFCURVE",
"-17 -81 CURVE SMOOTH"
);
}
);
width = 78;
}
);
note = commaaccentcomb;
unicode = 0326;
},
{
glyphname = cedillacomb;
lastChange = "2018-04-10 23:16:42 +0000";
layers = (
{
anchors = (
{
name = _bottom;
position = "{82, 0}";
},
{
name = bottom;
position = "{82, -187}";
}
);
layerId = "3C8330F3-4770-4812-9C95-859F387513C1";
paths = (
{
closed = 1;
nodes = (
"198 -187 OFFCURVE",
"193 -27 OFFCURVE",
"75 -27 CURVE SMOOTH",
"74 -27 OFFCURVE",
"70 -27 OFFCURVE",
"68 -28 CURVE",
"99 14 LINE",
"67 25 LINE",
"20 -40 LINE",
"20 -79 LINE",
"37 -64 OFFCURVE",
"53 -61 OFFCURVE",
"75 -61 CURVE SMOOTH",
"141 -61 OFFCURVE",
"149 -152 OFFCURVE",
"70 -152 CURVE SMOOTH",
"52 -152 OFFCURVE",
"36 -142 OFFCURVE",
"26 -127 CURVE",
"0 -150 LINE",
"13 -172 OFFCURVE",
"41 -187 OFFCURVE",
"70 -187 CURVE SMOOTH"
);
}
);
width = 165;
}
);
note = cedillacomb;
unicode = 0327;
},
{
glyphname = ogonekcomb;
lastChange = "2018-04-10 23:18:26 +0000";
layers = (
{
anchors = (
{
name = _ogonek;
position = "{93, 10}";
}
);
layerId = "3C8330F3-4770-4812-9C95-859F387513C1";
paths = (
{
closed = 1;
nodes = (
"143 -123 LINE",
"115 -141 OFFCURVE",
"70 -140 OFFCURVE",
"50 -115 CURVE SMOOTH",
"27 -87 OFFCURVE",
"58 -21 OFFCURVE",
"84 6 CURVE",
"39 6 LINE",
"2 -53 OFFCURVE",
"-11 -115 OFFCURVE",
"9 -144 CURVE",
"36 -176 OFFCURVE",
"107 -191 OFFCURVE",
"165 -153 CURVE"
);
}
);
width = 165;
}
);
note = ogonekcomb;
unicode = 0328;
},
{
glyphname = strokeshortcomb;
lastChange = "2018-04-10 23:12:15 +0000";
layers = (
{
anchors = (
{
name = _center;
position = "{210, 315}";
}
);
layerId = "3C8330F3-4770-4812-9C95-859F387513C1";
paths = (
{
closed = 1;
nodes = (
"420 337 LINE",
"0 337 LINE",
"0 292 LINE",
"420 292 LINE"
);
}
);
width = 420;
}
);
note = strokeshortcomb;
unicode = 0335;
},
{
glyphname = strokelongcomb;
lastChange = "2018-04-10 23:12:29 +0000";
layers = (
{
anchors = (
{
name = _center;
position = "{301, 315}";
}
);
layerId = "3C8330F3-4770-4812-9C95-859F387513C1";
paths = (
{
closed = 1;
nodes = (
"601 337 LINE",
"0 337 LINE",
"0 292 LINE",
"601 292 LINE"
);
}
);
width = 601;
}
);
note = strokelongcomb;
unicode = 0336;
},
{
glyphname = slashshortcomb;
lastChange = "2018-04-10 23:12:41 +0000";
layers = (
{
anchors = (
{
name = _center;
position = "{216, 282}";
}
);
layerId = "3C8330F3-4770-4812-9C95-859F387513C1";
paths = (
{
closed = 1;
nodes = (
"384 564 LINE",
"0 0 LINE",
"47 0 LINE",
"432 564 LINE"
);
}
);
width = 432;
}
);
note = slashshortcomb;
unicode = 0337;
},
{
glyphname = slashlongcomb;
lastChange = "2018-04-10 23:12:47 +0000";
layers = (
{
anchors = (
{
name = _center;
position = "{265, 341}";
}
);
layerId = "3C8330F3-4770-4812-9C95-859F387513C1";
paths = (
{
closed = 1;
nodes = (
"480 764 LINE",
"0 -83 LINE",
"48 -83 LINE",
"529 764 LINE"
);
}
);
width = 529;
}
);
note = slashlongcomb;
unicode = 0338;
},
